<svg width="480" height="307" viewBox="0 0 480 307" fill="none" xmlns="http://www.w3.org/2000/svg">
<g clip-path="url(#clip0_503_568)">
<g opacity="0.3">
<mask id="mask0_503_568" style="mask-type:alpha" maskUnits="userSpaceOnUse" x="107" y="37" width="235" height="235">
<circle cx="224.76" cy="154.226" r="76.5633" transform="rotate(-60.0121 224.76 154.226)" stroke="#F8F8EC" stroke-width="81.1571" stroke-linecap="round"/>
</mask>
<g mask="url(#mask0_503_568)">
<rect x="56.0425" y="55.9805" width="142.408" height="196.002" transform="rotate(-60.0121 56.0425 55.9805)" fill="url(#paint0_linear_503_568)"/>
</g>
</g>
<g style="mix-blend-mode:screen" opacity="0.6">
<mask id="mask1_503_568" style="mask-type:alpha" maskUnits="userSpaceOnUse" x="107" y="37" width="235" height="235">
<circle cx="224.758" cy="154.224" r="116.568" transform="rotate(104.855 224.758 154.224)" stroke="url(#paint1_linear_503_568)" stroke-width="1.14845" stroke-linecap="round"/>
</mask>
<g mask="url(#mask1_503_568)">
<rect x="412.571" y="205.425" width="141.259" height="194.854" transform="rotate(104.855 412.571 205.425)" fill="#F8F8EC" stroke="#F8F8EC" stroke-width="1.14845" stroke-linecap="round"/>
</g>
</g>
<g style="mix-blend-mode:screen" opacity="0.7">
<mask id="mask2_503_568" style="mask-type:alpha" maskUnits="userSpaceOnUse" x="83" y="12" width="284" height="284">
<circle cx="224.758" cy="154.225" r="140.012" transform="rotate(0.503265 224.758 154.225)" stroke="url(#paint2_linear_503_568)" stroke-width="3.06253" stroke-linecap="round"/>
</mask>
<g mask="url(#mask2_503_568)">
<rect x="229.272" y="-80.1194" width="169.01" height="233.769" transform="rotate(0.503265 229.272 -80.1194)" fill="#F8F8EC" stroke="#F8F8EC" stroke-width="3.06253" stroke-linecap="round"/>
</g>
</g>
<g opacity="0.3">
<mask id="mask3_503_568" style="mask-type:alpha" maskUnits="userSpaceOnUse" x="89" y="19" width="271" height="271">
<circle cx="224.757" cy="154.225" r="128.824" transform="rotate(71.4549 224.757 154.225)" stroke="url(#paint3_linear_503_568)" stroke-width="12.2501" stroke-linecap="round"/>
</mask>
<g mask="url(#mask3_503_568)">
<rect x="434.415" y="91.2824" width="151.805" height="213.546" transform="rotate(71.4549 434.415 91.2824)" fill="#F8F8EC" stroke="#F8F8EC" stroke-width="12.2501" stroke-linecap="round"/>
</g>
</g>
<path d="M130.248 120.946V129.252H108.86V142.409H125.25V150.567H108.86V172.25H98.5696V120.946H130.248ZM141.661 126.68C139.848 126.68 138.329 126.116 137.104 124.989C135.928 123.813 135.34 122.367 135.34 120.652C135.34 118.937 135.928 117.516 137.104 116.389C138.329 115.213 139.848 114.625 141.661 114.625C143.474 114.625 144.969 115.213 146.145 116.389C147.37 117.516 147.982 118.937 147.982 120.652C147.982 122.367 147.37 123.813 146.145 124.989C144.969 126.116 143.474 126.68 141.661 126.68ZM146.733 131.531V172.25H136.443V131.531H146.733ZM154.253 151.743C154.253 147.627 155.062 143.977 156.679 140.792C158.345 137.607 160.599 135.157 163.441 133.442C166.283 131.727 169.443 130.869 172.923 130.869C175.569 130.869 178.092 131.457 180.493 132.633C182.894 133.76 184.805 135.279 186.226 137.19V117.859H196.663V172.25H186.226V166.223C184.952 168.232 183.164 169.849 180.861 171.074C178.558 172.299 175.887 172.912 172.849 172.912C169.419 172.912 166.283 172.029 163.441 170.265C160.599 168.501 158.345 166.027 156.679 162.842C155.062 159.608 154.253 155.908 154.253 151.743ZM186.3 151.89C186.3 149.391 185.81 147.26 184.83 145.496C183.85 143.683 182.527 142.311 180.861 141.38C179.195 140.4 177.406 139.91 175.495 139.91C173.584 139.91 171.82 140.375 170.203 141.306C168.586 142.237 167.263 143.609 166.234 145.422C165.254 147.186 164.764 149.293 164.764 151.743C164.764 154.193 165.254 156.349 166.234 158.211C167.263 160.024 168.586 161.421 170.203 162.401C171.869 163.381 173.633 163.871 175.495 163.871C177.406 163.871 179.195 163.405 180.861 162.474C182.527 161.494 183.85 160.122 184.83 158.358C185.81 156.545 186.3 154.389 186.3 151.89ZM244.566 151.008C244.566 152.478 244.468 153.801 244.272 154.977H214.504C214.749 157.917 215.778 160.22 217.591 161.886C219.404 163.552 221.634 164.385 224.28 164.385C228.102 164.385 230.822 162.744 232.439 159.461H243.537C242.361 163.381 240.107 166.615 236.775 169.163C233.443 171.662 229.352 172.912 224.501 172.912C220.58 172.912 217.052 172.054 213.916 170.339C210.829 168.575 208.404 166.1 206.64 162.915C204.925 159.73 204.067 156.055 204.067 151.89C204.067 147.676 204.925 143.977 206.64 140.792C208.355 137.607 210.756 135.157 213.843 133.442C216.93 131.727 220.482 130.869 224.501 130.869C228.372 130.869 231.826 131.702 234.864 133.368C237.951 135.034 240.328 137.411 241.994 140.498C243.709 143.536 244.566 147.039 244.566 151.008ZM233.909 148.068C233.86 145.422 232.904 143.315 231.042 141.747C229.18 140.13 226.902 139.322 224.207 139.322C221.659 139.322 219.502 140.106 217.738 141.674C216.023 143.193 214.97 145.324 214.578 148.068H233.909ZM262.367 117.859V172.25H252.077V117.859H262.367ZM277.752 126.68C275.939 126.68 274.42 126.116 273.195 124.989C272.019 123.813 271.431 122.367 271.431 120.652C271.431 118.937 272.019 117.516 273.195 116.389C274.42 115.213 275.939 114.625 277.752 114.625C279.565 114.625 281.06 115.213 282.236 116.389C283.461 117.516 284.073 118.937 284.073 120.652C284.073 122.367 283.461 123.813 282.236 124.989C281.06 126.116 279.565 126.68 277.752 126.68ZM282.824 131.531V172.25H272.534V131.531H282.824ZM308.573 172.912C305.241 172.912 302.252 172.324 299.606 171.147C296.96 169.922 294.853 168.281 293.285 166.223C291.766 164.165 290.933 161.886 290.786 159.387H301.149C301.345 160.955 302.105 162.254 303.428 163.283C304.8 164.312 306.49 164.826 308.499 164.826C310.459 164.826 311.978 164.434 313.056 163.65C314.183 162.866 314.747 161.862 314.747 160.637C314.747 159.314 314.061 158.334 312.689 157.697C311.366 157.011 309.234 156.276 306.294 155.492C303.256 154.757 300.757 153.997 298.797 153.213C296.886 152.429 295.22 151.229 293.799 149.612C292.427 147.995 291.741 145.814 291.741 143.07C291.741 140.816 292.378 138.758 293.652 136.896C294.975 135.034 296.837 133.564 299.238 132.486C301.688 131.408 304.555 130.869 307.838 130.869C312.689 130.869 316.56 132.094 319.451 134.544C322.342 136.945 323.934 140.204 324.228 144.32H314.379C314.232 142.703 313.546 141.429 312.321 140.498C311.145 139.518 309.553 139.028 307.544 139.028C305.682 139.028 304.236 139.371 303.207 140.057C302.227 140.743 301.737 141.698 301.737 142.923C301.737 144.295 302.423 145.349 303.795 146.084C305.167 146.77 307.299 147.48 310.19 148.215C313.13 148.95 315.555 149.71 317.466 150.494C319.377 151.278 321.019 152.503 322.391 154.169C323.812 155.786 324.547 157.942 324.596 160.637C324.596 162.989 323.934 165.096 322.611 166.958C321.337 168.82 319.475 170.29 317.025 171.368C314.624 172.397 311.807 172.912 308.573 172.912Z" fill="#F8F8EC"/>
<path opacity="0.85" d="M107.392 197.584C107.392 196.37 107.64 195.294 108.138 194.358C108.65 193.421 109.338 192.697 110.201 192.185C111.079 191.658 112.052 191.395 113.12 191.395C113.91 191.395 114.686 191.57 115.447 191.921C116.222 192.258 116.837 192.712 117.29 193.282V187.444H119.814V203.686H117.29V201.864C116.881 202.449 116.31 202.932 115.578 203.312C114.861 203.693 114.035 203.883 113.098 203.883C112.045 203.883 111.079 203.62 110.201 203.093C109.338 202.552 108.65 201.805 108.138 200.854C107.64 199.889 107.392 198.798 107.392 197.584ZM117.29 197.628C117.29 196.794 117.115 196.07 116.763 195.455C116.427 194.84 115.981 194.372 115.425 194.05C114.869 193.728 114.269 193.567 113.625 193.567C112.981 193.567 112.381 193.728 111.825 194.05C111.269 194.358 110.816 194.819 110.464 195.433C110.128 196.033 109.96 196.75 109.96 197.584C109.96 198.418 110.128 199.15 110.464 199.779C110.816 200.408 111.269 200.891 111.825 201.227C112.396 201.549 112.996 201.71 113.625 201.71C114.269 201.71 114.869 201.549 115.425 201.227C115.981 200.905 116.427 200.437 116.763 199.823C117.115 199.194 117.29 198.462 117.29 197.628ZM127.446 189.99C126.993 189.99 126.612 189.836 126.305 189.529C125.998 189.222 125.844 188.841 125.844 188.388C125.844 187.934 125.998 187.554 126.305 187.246C126.612 186.939 126.993 186.786 127.446 186.786C127.885 186.786 128.258 186.939 128.566 187.246C128.873 187.554 129.027 187.934 129.027 188.388C129.027 188.841 128.873 189.222 128.566 189.529C128.258 189.836 127.885 189.99 127.446 189.99ZM128.675 191.592V203.686H126.173V191.592H128.675ZM139.423 203.883C138.472 203.883 137.616 203.715 136.855 203.378C136.109 203.027 135.516 202.559 135.077 201.974C134.638 201.374 134.404 200.708 134.375 199.976H136.965C137.009 200.488 137.25 200.92 137.689 201.271C138.143 201.608 138.706 201.776 139.379 201.776C140.081 201.776 140.623 201.644 141.003 201.381C141.398 201.103 141.596 200.752 141.596 200.327C141.596 199.874 141.376 199.537 140.937 199.318C140.513 199.098 139.833 198.857 138.896 198.594C137.989 198.345 137.25 198.103 136.679 197.869C136.109 197.635 135.611 197.277 135.187 196.794C134.777 196.311 134.572 195.674 134.572 194.884C134.572 194.241 134.763 193.655 135.143 193.129C135.523 192.587 136.065 192.163 136.767 191.856C137.484 191.548 138.303 191.395 139.225 191.395C140.601 191.395 141.705 191.746 142.539 192.448C143.388 193.136 143.842 194.08 143.9 195.279H141.398C141.354 194.738 141.135 194.306 140.74 193.984C140.345 193.663 139.811 193.502 139.138 193.502C138.479 193.502 137.974 193.626 137.623 193.875C137.272 194.124 137.096 194.453 137.096 194.862C137.096 195.184 137.213 195.455 137.448 195.674C137.682 195.894 137.967 196.07 138.303 196.201C138.64 196.318 139.138 196.472 139.796 196.662C140.674 196.896 141.391 197.138 141.947 197.386C142.518 197.621 143.008 197.972 143.417 198.44C143.827 198.908 144.039 199.53 144.054 200.306C144.054 200.993 143.864 201.608 143.483 202.149C143.103 202.691 142.561 203.115 141.859 203.422C141.171 203.729 140.359 203.883 139.423 203.883ZM152.749 193.633V200.327C152.749 200.781 152.852 201.11 153.057 201.315C153.276 201.505 153.642 201.6 154.154 201.6H155.69V203.686H153.715C152.588 203.686 151.725 203.422 151.125 202.895C150.525 202.369 150.225 201.513 150.225 200.327V193.633H148.799V191.592H150.225V188.585H152.749V191.592H155.69V193.633H152.749ZM163.571 193.348C163.937 192.733 164.42 192.258 165.02 191.921C165.634 191.57 166.359 191.395 167.193 191.395V193.984H166.556C165.576 193.984 164.83 194.233 164.317 194.731C163.82 195.228 163.571 196.092 163.571 197.321V203.686H161.069V191.592H163.571V193.348ZM173.838 189.99C173.385 189.99 173.004 189.836 172.697 189.529C172.39 189.222 172.236 188.841 172.236 188.388C172.236 187.934 172.39 187.554 172.697 187.246C173.004 186.939 173.385 186.786 173.838 186.786C174.277 186.786 174.65 186.939 174.958 187.246C175.265 187.554 175.419 187.934 175.419 188.388C175.419 188.841 175.265 189.222 174.958 189.529C174.65 189.836 174.277 189.99 173.838 189.99ZM175.067 191.592V203.686H172.565V191.592H175.067ZM183.927 193.392C184.352 192.807 184.929 192.331 185.661 191.965C186.407 191.585 187.234 191.395 188.141 191.395C189.209 191.395 190.175 191.651 191.038 192.163C191.902 192.675 192.582 193.407 193.08 194.358C193.577 195.294 193.826 196.37 193.826 197.584C193.826 198.798 193.577 199.889 193.08 200.854C192.582 201.805 191.894 202.552 191.016 203.093C190.153 203.62 189.195 203.883 188.141 203.883C187.205 203.883 186.371 203.7 185.639 203.334C184.922 202.969 184.352 202.5 183.927 201.93V203.686H181.425V187.444H183.927V193.392ZM191.28 197.584C191.28 196.75 191.104 196.033 190.753 195.433C190.417 194.819 189.963 194.358 189.392 194.05C188.836 193.728 188.236 193.567 187.593 193.567C186.963 193.567 186.363 193.728 185.793 194.05C185.237 194.372 184.783 194.84 184.432 195.455C184.095 196.07 183.927 196.794 183.927 197.628C183.927 198.462 184.095 199.194 184.432 199.823C184.783 200.437 185.237 200.905 185.793 201.227C186.363 201.549 186.963 201.71 187.593 201.71C188.236 201.71 188.836 201.549 189.392 201.227C189.963 200.891 190.417 200.408 190.753 199.779C191.104 199.15 191.28 198.418 191.28 197.584ZM210.325 191.592V203.686H207.823V202.259C207.428 202.756 206.908 203.151 206.265 203.444C205.635 203.722 204.962 203.861 204.245 203.861C203.294 203.861 202.438 203.664 201.677 203.269C200.931 202.873 200.339 202.288 199.9 201.513C199.475 200.737 199.263 199.801 199.263 198.703V191.592H201.743V198.33C201.743 199.413 202.014 200.247 202.555 200.832C203.097 201.403 203.836 201.688 204.772 201.688C205.708 201.688 206.447 201.403 206.989 200.832C207.545 200.247 207.823 199.413 207.823 198.33V191.592H210.325ZM219.618 193.633V200.327C219.618 200.781 219.72 201.11 219.925 201.315C220.145 201.505 220.511 201.6 221.023 201.6H222.559V203.686H220.584C219.457 203.686 218.594 203.422 217.994 202.895C217.394 202.369 217.094 201.513 217.094 200.327V193.633H215.667V191.592H217.094V188.585H219.618V191.592H222.559V193.633H219.618ZM229.211 189.99C228.757 189.99 228.377 189.836 228.07 189.529C227.762 189.222 227.609 188.841 227.609 188.388C227.609 187.934 227.762 187.554 228.07 187.246C228.377 186.939 228.757 186.786 229.211 186.786C229.65 186.786 230.023 186.939 230.33 187.246C230.637 187.554 230.791 187.934 230.791 188.388C230.791 188.841 230.637 189.222 230.33 189.529C230.023 189.836 229.65 189.99 229.211 189.99ZM230.44 191.592V203.686H227.938V191.592H230.44ZM242.043 203.883C240.902 203.883 239.87 203.627 238.949 203.115C238.027 202.588 237.303 201.857 236.776 200.92C236.249 199.969 235.986 198.872 235.986 197.628C235.986 196.399 236.256 195.309 236.798 194.358C237.339 193.407 238.078 192.675 239.014 192.163C239.951 191.651 240.997 191.395 242.153 191.395C243.309 191.395 244.355 191.651 245.292 192.163C246.228 192.675 246.967 193.407 247.508 194.358C248.05 195.309 248.32 196.399 248.32 197.628C248.32 198.857 248.042 199.947 247.486 200.898C246.93 201.849 246.17 202.588 245.204 203.115C244.253 203.627 243.199 203.883 242.043 203.883ZM242.043 201.71C242.687 201.71 243.287 201.557 243.843 201.249C244.414 200.942 244.875 200.481 245.226 199.867C245.577 199.252 245.753 198.506 245.753 197.628C245.753 196.75 245.584 196.011 245.248 195.411C244.911 194.797 244.465 194.336 243.909 194.028C243.353 193.721 242.753 193.567 242.109 193.567C241.465 193.567 240.865 193.721 240.309 194.028C239.768 194.336 239.336 194.797 239.014 195.411C238.693 196.011 238.532 196.75 238.532 197.628C238.532 198.93 238.861 199.94 239.519 200.657C240.192 201.359 241.034 201.71 242.043 201.71ZM259.968 191.395C260.919 191.395 261.768 191.592 262.514 191.987C263.275 192.382 263.868 192.968 264.292 193.743C264.716 194.519 264.928 195.455 264.928 196.552V203.686H262.448V196.926C262.448 195.843 262.178 195.016 261.636 194.445C261.095 193.86 260.356 193.567 259.419 193.567C258.483 193.567 257.737 193.86 257.181 194.445C256.639 195.016 256.369 195.843 256.369 196.926V203.686H253.867V191.592H256.369V192.975C256.778 192.477 257.298 192.09 257.927 191.812C258.571 191.534 259.251 191.395 259.968 191.395ZM272.4 200.679L269.744 206.736H268.12L269.678 200.679H272.4ZM284.765 187.444V203.686H282.263V187.444H284.765ZM293.186 187.444V203.686H290.684V187.444H293.186ZM298.051 197.628C298.051 196.384 298.3 195.294 298.797 194.358C299.309 193.407 300.012 192.675 300.904 192.163C301.797 191.651 302.821 191.395 303.977 191.395C305.44 191.395 306.647 191.746 307.598 192.448C308.564 193.136 309.215 194.124 309.552 195.411H306.852C306.633 194.811 306.282 194.343 305.799 194.006C305.316 193.67 304.709 193.502 303.977 193.502C302.953 193.502 302.133 193.867 301.519 194.599C300.919 195.316 300.619 196.326 300.619 197.628C300.619 198.93 300.919 199.947 301.519 200.679C302.133 201.41 302.953 201.776 303.977 201.776C305.426 201.776 306.384 201.14 306.852 199.867H309.552C309.201 201.096 308.542 202.076 307.576 202.808C306.611 203.525 305.411 203.883 303.977 203.883C302.821 203.883 301.797 203.627 300.904 203.115C300.012 202.588 299.309 201.857 298.797 200.92C298.3 199.969 298.051 198.872 298.051 197.628Z" fill="#F8F8EC"/>
</g>
<defs>
<linearGradient id="paint0_linear_503_568" x1="127.246" y1="55.9805" x2="127.246" y2="251.983" gradientUnits="userSpaceOnUse">
<stop offset="0.556318" stop-color="#F8F8EC" stop-opacity="0"/>
<stop offset="1" stop-color="#F8F8EC" stop-opacity="0.6"/>
</linearGradient>
<linearGradient id="paint1_linear_503_568" x1="224.758" y1="37.0822" x2="224.758" y2="271.366" gradientUnits="userSpaceOnUse">
<stop stop-color="#F8F8EC" stop-opacity="0"/>
<stop offset="0.505208" stop-color="#F8F8EC"/>
</linearGradient>
<linearGradient id="paint2_linear_503_568" x1="224.758" y1="12.6812" x2="224.758" y2="295.768" gradientUnits="userSpaceOnUse">
<stop stop-color="#F8F8EC" stop-opacity="0"/>
<stop offset="1" stop-color="#F8F8EC"/>
</linearGradient>
<linearGradient id="paint3_linear_503_568" x1="224.757" y1="19.2765" x2="224.757" y2="289.174" gradientUnits="userSpaceOnUse">
<stop stop-color="#F8F8EC" stop-opacity="0"/>
<stop offset="0.46875" stop-color="#F8F8EC"/>
</linearGradient>
<clipPath id="clip0_503_568">
<rect width="508.38" height="306.253" fill="white" transform="translate(-29)"/>
</clipPath>
</defs>
</svg>
