<svg width="291" height="163" viewBox="0 0 291 163" fill="none" xmlns="http://www.w3.org/2000/svg">
<g style="mix-blend-mode:luminosity">
<g style="mix-blend-mode:difference" opacity="0.3">
<mask id="mask0_1241_522" style="mask-type:alpha" maskUnits="userSpaceOnUse" x="12" y="7" width="149" height="149">
<circle cx="86.5" cy="81.5" r="40" stroke="#D96D6D" stroke-width="69" stroke-linecap="round"/>
</mask>
<g mask="url(#mask0_1241_522)">
<g style="mix-blend-mode:color" opacity="0.8">
<rect x="-75.5672" y="-110.232" width="345.64" height="247.975" fill="url(#paint0_linear_1241_522)"/>
<rect x="-75.5672" y="-110.232" width="345.64" height="247.975" stroke="url(#paint1_linear_1241_522)" stroke-width="76.85" stroke-linecap="round"/>
</g>
</g>
</g>
<path d="M30.6818 54.6364V61.4545L2.45455 61.4545L2.45455 54.6364L30.6818 54.6364ZM10.9091 107L10.9091 47.4091C10.9091 44.4091 11.6136 41.9091 13.0227 39.9091C14.4318 37.9091 16.2614 36.4091 18.5114 35.4091C20.7614 34.4091 23.1364 33.9091 25.6364 33.9091C27.6136 33.9091 29.2273 34.0682 30.4773 34.3864C31.7273 34.7045 32.6591 35 33.2727 35.2727L30.9545 42.2273C30.5455 42.0909 29.9773 41.9205 29.25 41.7159C28.5455 41.5114 27.6136 41.4091 26.4545 41.4091C23.7955 41.4091 21.875 42.0795 20.6932 43.4205C19.5341 44.7614 18.9545 46.7273 18.9545 49.3182L18.9545 107H10.9091ZM41.9574 107L41.9574 54.6364H50.0028L50.0028 107L41.9574 107ZM46.0483 45.9091C44.4801 45.9091 43.1278 45.375 41.9915 44.3068C40.8778 43.2386 40.321 41.9545 40.321 40.4545C40.321 38.9545 40.8778 37.6705 41.9915 36.6023C43.1278 35.5341 44.4801 35 46.0483 35C47.6165 35 48.9574 35.5341 50.071 36.6023C51.2074 37.6705 51.7756 38.9545 51.7756 40.4545C51.7756 41.9545 51.2074 43.2386 50.071 44.3068C48.9574 45.375 47.6165 45.9091 46.0483 45.9091ZM84.5114 108.091C80.1477 108.091 76.2955 106.989 72.9545 104.784C69.6136 102.557 67 99.4205 65.1136 95.375C63.2273 91.3068 62.2841 86.5 62.2841 80.9545C62.2841 75.4545 63.2273 70.6818 65.1136 66.6364C67 62.5909 69.625 59.4659 72.9886 57.2614C76.3523 55.0568 80.2386 53.9545 84.6477 53.9545C88.0568 53.9545 90.75 54.5227 92.7273 55.6591C94.7273 56.7727 96.25 58.0455 97.2955 59.4773C98.3636 60.8864 99.1932 62.0455 99.7841 62.9545H100.466L100.466 37.1818H108.511L108.511 107H100.739V98.9545H99.7841C99.1932 99.9091 98.3523 101.114 97.2614 102.568C96.1705 104 94.6136 105.284 92.5909 106.42C90.5682 107.534 87.875 108.091 84.5114 108.091ZM85.6023 100.864C88.8295 100.864 91.5568 100.023 93.7841 98.3409C96.0114 96.6364 97.7045 94.2841 98.8636 91.2841C100.023 88.2614 100.602 84.7727 100.602 80.8182C100.602 76.9091 100.034 73.4886 98.8977 70.5568C97.7614 67.6023 96.0795 65.3068 93.8523 63.6705C91.625 62.0114 88.875 61.1818 85.6023 61.1818C82.1932 61.1818 79.3523 62.0568 77.0795 63.8068C74.8295 65.5341 73.1364 67.8864 72 70.8636C70.8864 73.8182 70.3295 77.1364 70.3295 80.8182C70.3295 84.5455 70.8977 87.9318 72.0341 90.9773C73.1932 94 74.8977 96.4091 77.1477 98.2045C79.4205 99.9773 82.2386 100.864 85.6023 100.864ZM146.318 108.091C141.273 108.091 136.92 106.977 133.261 104.75C129.625 102.5 126.818 99.3636 124.841 95.3409C122.886 91.2955 121.909 86.5909 121.909 81.2273C121.909 75.8636 122.886 71.1364 124.841 67.0455C126.818 62.9318 129.568 59.7273 133.091 57.4318C136.636 55.1136 140.773 53.9545 145.5 53.9545C148.227 53.9545 150.92 54.4091 153.58 55.3182C156.239 56.2273 158.659 57.7045 160.841 59.75C163.023 61.7727 164.761 64.4545 166.057 67.7955C167.352 71.1364 168 75.25 168 80.1364V83.5455L127.636 83.5455V76.5909H159.818C159.818 73.6364 159.227 71 158.045 68.6818C156.886 66.3636 155.227 64.5341 153.068 63.1932C150.932 61.8523 148.409 61.1818 145.5 61.1818C142.295 61.1818 139.523 61.9773 137.182 63.5682C134.864 65.1364 133.08 67.1818 131.83 69.7045C130.58 72.2273 129.955 74.9318 129.955 77.8182V82.4545C129.955 86.4091 130.636 89.7614 132 92.5114C133.386 95.2386 135.307 97.3182 137.761 98.75C140.216 100.159 143.068 100.864 146.318 100.864C148.432 100.864 150.341 100.568 152.045 99.9773C153.773 99.3636 155.261 98.4545 156.511 97.25C157.761 96.0227 158.727 94.5 159.409 92.6818L167.182 94.8636C166.364 97.5 164.989 99.8182 163.057 101.818C161.125 103.795 158.739 105.341 155.898 106.455C153.057 107.545 149.864 108.091 146.318 108.091ZM188.284 37.1818L188.284 107H180.239L180.239 37.1818H188.284ZM203.02 107L203.02 54.6364H211.065L211.065 107H203.02ZM207.111 45.9091C205.543 45.9091 204.19 45.375 203.054 44.3068C201.94 43.2386 201.384 41.9545 201.384 40.4545C201.384 38.9545 201.94 37.6705 203.054 36.6023C204.19 35.5341 205.543 35 207.111 35C208.679 35 210.02 35.5341 211.134 36.6023C212.27 37.6705 212.838 38.9545 212.838 40.4545C212.838 41.9545 212.27 43.2386 211.134 44.3068C210.02 45.375 208.679 45.9091 207.111 45.9091ZM262.892 66.3636L255.665 68.4091C255.21 67.2045 254.54 66.0341 253.653 64.8977C252.79 63.7386 251.608 62.7841 250.108 62.0341C248.608 61.2841 246.688 60.9091 244.347 60.9091C241.142 60.9091 238.472 61.6477 236.335 63.125C234.222 64.5795 233.165 66.4318 233.165 68.6818C233.165 70.6818 233.892 72.2614 235.347 73.4205C236.801 74.5795 239.074 75.5455 242.165 76.3182L249.938 78.2273C254.619 79.3636 258.108 81.1023 260.403 83.4432C262.699 85.7614 263.847 88.75 263.847 92.4091C263.847 95.4091 262.983 98.0909 261.256 100.455C259.551 102.818 257.165 104.682 254.097 106.045C251.028 107.409 247.46 108.091 243.392 108.091C238.051 108.091 233.631 106.932 230.131 104.614C226.631 102.295 224.415 98.9091 223.483 94.4545L231.119 92.5455C231.847 95.3636 233.222 97.4773 235.244 98.8864C237.29 100.295 239.96 101 243.256 101C247.006 101 249.983 100.205 252.188 98.6136C254.415 97 255.528 95.0682 255.528 92.8182C255.528 91 254.892 89.4773 253.619 88.25C252.347 87 250.392 86.0682 247.756 85.4545L239.028 83.4091C234.233 82.2727 230.71 80.5114 228.46 78.125C226.233 75.7159 225.119 72.7045 225.119 69.0909C225.119 66.1364 225.949 63.5227 227.608 61.25C229.29 58.9773 231.574 57.1932 234.46 55.8977C237.369 54.6023 240.665 53.9545 244.347 53.9545C249.528 53.9545 253.597 55.0909 256.551 57.3636C259.528 59.6364 261.642 62.6364 262.892 66.3636Z" fill="#FFF1DB"/>
<path d="M41.0311 142.409C39.3948 142.409 37.9502 141.996 36.6973 141.169C35.4445 140.334 34.4644 139.158 33.757 137.641C33.0496 136.115 32.6959 134.312 32.6959 132.233C32.6959 130.17 33.0496 128.381 33.757 126.864C34.4644 125.347 35.4487 124.175 36.7101 123.348C37.9715 122.521 39.4289 122.108 41.0823 122.108C42.3607 122.108 43.3706 122.321 44.1121 122.747C44.8621 123.165 45.4331 123.642 45.8252 124.179C46.2257 124.707 46.5368 125.142 46.7584 125.483H47.0141V115.818H50.0311L50.0311 142H47.1164L47.1164 138.983H46.7584C46.5368 139.341 46.2215 139.793 45.8124 140.338C45.4033 140.875 44.8195 141.357 44.061 141.783C43.3024 142.2 42.2925 142.409 41.0311 142.409ZM41.4402 139.699C42.6505 139.699 43.6732 139.384 44.5084 138.753C45.3436 138.114 45.9786 137.232 46.4132 136.107C46.8479 134.973 47.0652 133.665 47.0652 132.182C47.0652 130.716 46.8522 129.433 46.426 128.334C45.9999 127.226 45.3692 126.365 44.534 125.751C43.6987 125.129 42.6675 124.818 41.4402 124.818C40.1618 124.818 39.0965 125.146 38.2442 125.803C37.4005 126.45 36.7655 127.332 36.3394 128.449C35.9218 129.557 35.713 130.801 35.713 132.182C35.713 133.58 35.926 134.849 36.3522 135.991C36.7868 137.125 37.426 138.028 38.2698 138.702C39.122 139.366 40.1789 139.699 41.4402 139.699ZM55.9757 142L55.9757 122.364H58.9928L58.9928 142H55.9757ZM57.5098 119.091C56.9218 119.091 56.4147 118.891 55.9885 118.49C55.5709 118.089 55.3621 117.608 55.3621 117.045C55.3621 116.483 55.5709 116.001 55.9885 115.601C56.4147 115.2 56.9218 115 57.5098 115C58.0979 115 58.6007 115.2 59.0184 115.601C59.4445 116.001 59.6576 116.483 59.6576 117.045C59.6576 117.608 59.4445 118.089 59.0184 118.49C58.6007 118.891 58.0979 119.091 57.5098 119.091ZM78.4278 126.761L75.7176 127.528C75.5471 127.077 75.2957 126.638 74.9633 126.212C74.6394 125.777 74.1963 125.419 73.6338 125.138C73.0713 124.857 72.3511 124.716 71.4733 124.716C70.2715 124.716 69.2701 124.993 68.469 125.547C67.6764 126.092 67.2801 126.787 67.2801 127.631C67.2801 128.381 67.5528 128.973 68.0983 129.408C68.6437 129.842 69.496 130.205 70.6551 130.494L73.5698 131.21C75.3255 131.636 76.6338 132.288 77.4946 133.166C78.3554 134.036 78.7858 135.156 78.7858 136.528C78.7858 137.653 78.4619 138.659 77.8142 139.545C77.175 140.432 76.2801 141.131 75.1295 141.642C73.9789 142.153 72.6409 142.409 71.1153 142.409C69.1125 142.409 67.4548 141.974 66.1423 141.105C64.8298 140.236 63.9988 138.966 63.6494 137.295L66.513 136.58C66.7858 137.636 67.3014 138.429 68.0599 138.957C68.8269 139.486 69.8284 139.75 71.0642 139.75C72.4704 139.75 73.5869 139.452 74.4136 138.855C75.2488 138.25 75.6664 137.526 75.6664 136.682C75.6664 136 75.4278 135.429 74.9505 134.969C74.4733 134.5 73.7403 134.151 72.7517 133.92L69.4789 133.153C67.6806 132.727 66.3596 132.067 65.5159 131.172C64.6806 130.268 64.263 129.139 64.263 127.784C64.263 126.676 64.5741 125.696 65.1963 124.844C65.8269 123.991 66.6835 123.322 67.7659 122.837C68.8568 122.351 70.0926 122.108 71.4733 122.108C73.4164 122.108 74.942 122.534 76.05 123.386C77.1664 124.239 77.959 125.364 78.4278 126.761ZM91.8671 122.364V124.92L81.6909 124.92V122.364H91.8671ZM84.6568 117.659H87.6739V136.375C87.6739 137.227 87.7975 137.866 88.0446 138.293C88.3003 138.71 88.6242 138.991 89.0162 139.136C89.4168 139.273 89.8387 139.341 90.2818 139.341C90.6142 139.341 90.887 139.324 91.1 139.29C91.3131 139.247 91.4836 139.213 91.6114 139.188L92.225 141.898C92.0205 141.974 91.735 142.051 91.3685 142.128C91.002 142.213 90.5375 142.256 89.975 142.256C89.1228 142.256 88.2875 142.072 87.4693 141.706C86.6597 141.339 85.9864 140.781 85.4495 140.031C84.9211 139.281 84.6568 138.335 84.6568 137.193V117.659ZM96.4054 142V122.364H99.3202V125.33H99.5247C99.8827 124.358 100.53 123.57 101.468 122.964C102.405 122.359 103.462 122.057 104.638 122.057C104.86 122.057 105.137 122.061 105.469 122.07C105.802 122.078 106.053 122.091 106.224 122.108V125.176C106.121 125.151 105.887 125.112 105.52 125.061C105.163 125.001 104.783 124.972 104.383 124.972C103.428 124.972 102.576 125.172 101.826 125.572C101.084 125.964 100.496 126.51 100.062 127.209C99.6355 127.899 99.4225 128.687 99.4225 129.574V142H96.4054ZM109.8 142V122.364H112.817V142H109.8ZM111.334 119.091C110.746 119.091 110.239 118.891 109.813 118.49C109.395 118.089 109.186 117.608 109.186 117.045C109.186 116.483 109.395 116.001 109.813 115.601C110.239 115.2 110.746 115 111.334 115C111.922 115 112.425 115.2 112.843 115.601C113.269 116.001 113.482 116.483 113.482 117.045C113.482 117.608 113.269 118.089 112.843 118.49C112.425 118.891 111.922 119.091 111.334 119.091ZM118.752 142V115.818H121.769V125.483H122.025C122.246 125.142 122.553 124.707 122.945 124.179C123.346 123.642 123.917 123.165 124.658 122.747C125.408 122.321 126.422 122.108 127.701 122.108C129.354 122.108 130.812 122.521 132.073 123.348C133.334 124.175 134.319 125.347 135.026 126.864C135.734 128.381 136.087 130.17 136.087 132.233C136.087 134.313 135.734 136.115 135.026 137.641C134.319 139.158 133.339 140.334 132.086 141.169C130.833 141.996 129.388 142.409 127.752 142.409C126.491 142.409 125.481 142.2 124.722 141.783C123.964 141.357 123.38 140.875 122.971 140.338C122.562 139.793 122.246 139.341 122.025 138.983H121.667V142H118.752ZM121.718 132.182C121.718 133.665 121.935 134.973 122.37 136.107C122.805 137.232 123.44 138.114 124.275 138.753C125.11 139.384 126.133 139.699 127.343 139.699C128.604 139.699 129.657 139.366 130.501 138.702C131.353 138.028 131.992 137.125 132.418 135.991C132.853 134.849 133.07 133.58 133.07 132.182C133.07 130.801 132.857 129.557 132.431 128.449C132.013 127.332 131.378 126.45 130.526 125.803C129.682 125.146 128.621 124.818 127.343 124.818C126.116 124.818 125.084 125.129 124.249 125.751C123.414 126.365 122.783 127.226 122.357 128.334C121.931 129.433 121.718 130.716 121.718 132.182ZM153.077 133.972V122.364H156.094V142H153.077V138.676H152.873C152.413 139.673 151.697 140.521 150.725 141.22C149.753 141.911 148.526 142.256 147.043 142.256C145.816 142.256 144.725 141.987 143.77 141.45C142.816 140.905 142.066 140.087 141.52 138.996C140.975 137.896 140.702 136.511 140.702 134.841V122.364H143.719V134.636C143.719 136.068 144.12 137.21 144.921 138.063C145.731 138.915 146.762 139.341 148.015 139.341C148.765 139.341 149.528 139.149 150.303 138.766C151.087 138.382 151.743 137.794 152.272 137.001C152.809 136.209 153.077 135.199 153.077 133.972ZM170.16 122.364V124.92H159.984V122.364H170.16ZM162.95 117.659H165.967V136.375C165.967 137.227 166.09 137.866 166.338 138.293C166.593 138.71 166.917 138.991 167.309 139.136C167.71 139.273 168.132 139.341 168.575 139.341C168.907 139.341 169.18 139.324 169.393 139.29C169.606 139.247 169.777 139.213 169.904 139.188L170.518 141.898C170.313 141.974 170.028 142.051 169.661 142.128C169.295 142.213 168.83 142.256 168.268 142.256C167.416 142.256 166.58 142.072 165.762 141.706C164.953 141.339 164.279 140.781 163.742 140.031C163.214 139.281 162.95 138.335 162.95 137.193V117.659ZM174.698 142V122.364H177.715V142H174.698ZM176.232 119.091C175.644 119.091 175.137 118.891 174.711 118.49C174.294 118.089 174.085 117.608 174.085 117.045C174.085 116.483 174.294 116.001 174.711 115.601C175.137 115.2 175.644 115 176.232 115C176.821 115 177.323 115.2 177.741 115.601C178.167 116.001 178.38 116.483 178.38 117.045C178.38 117.608 178.167 118.089 177.741 118.49C177.323 118.891 176.821 119.091 176.232 119.091ZM191.219 142.409C189.446 142.409 187.891 141.987 186.552 141.143C185.223 140.3 184.183 139.119 183.433 137.602C182.692 136.085 182.321 134.312 182.321 132.284C182.321 130.239 182.692 128.453 183.433 126.928C184.183 125.402 185.223 124.217 186.552 123.374C187.891 122.53 189.446 122.108 191.219 122.108C192.991 122.108 194.542 122.53 195.872 123.374C197.21 124.217 198.25 125.402 198.991 126.928C199.741 128.453 200.116 130.239 200.116 132.284C200.116 134.312 199.741 136.085 198.991 137.602C198.25 139.119 197.21 140.3 195.872 141.143C194.542 141.987 192.991 142.409 191.219 142.409ZM191.219 139.699C192.565 139.699 193.673 139.354 194.542 138.663C195.412 137.973 196.055 137.065 196.473 135.94C196.891 134.815 197.099 133.597 197.099 132.284C197.099 130.972 196.891 129.749 196.473 128.615C196.055 127.482 195.412 126.565 194.542 125.866C193.673 125.168 192.565 124.818 191.219 124.818C189.872 124.818 188.764 125.168 187.895 125.866C187.025 126.565 186.382 127.482 185.964 128.615C185.547 129.749 185.338 130.972 185.338 132.284C185.338 133.597 185.547 134.815 185.964 135.94C186.382 137.065 187.025 137.973 187.895 138.663C188.764 139.354 189.872 139.699 191.219 139.699ZM207.739 130.188V142H204.722V122.364H207.637V125.432H207.892C208.353 124.435 209.051 123.634 209.989 123.028C210.926 122.415 212.137 122.108 213.62 122.108C214.949 122.108 216.112 122.381 217.11 122.926C218.107 123.463 218.882 124.281 219.436 125.381C219.99 126.472 220.267 127.852 220.267 129.523V142H217.25V129.727C217.25 128.185 216.85 126.983 216.049 126.122C215.247 125.253 214.148 124.818 212.75 124.818C211.787 124.818 210.926 125.027 210.168 125.445C209.418 125.862 208.826 126.472 208.391 127.273C207.956 128.074 207.739 129.045 207.739 130.188ZM238.922 115.818V142H235.905V115.818H238.922ZM247.465 115.818V142H244.448V115.818H247.465ZM260.969 142.409C259.128 142.409 257.542 141.974 256.213 141.105C254.883 140.236 253.861 139.038 253.145 137.513C252.429 135.987 252.071 134.244 252.071 132.284C252.071 130.29 252.437 128.53 253.17 127.004C253.912 125.47 254.943 124.273 256.264 123.412C257.594 122.543 259.145 122.108 260.917 122.108C262.298 122.108 263.542 122.364 264.65 122.875C265.758 123.386 266.666 124.102 267.373 125.023C268.081 125.943 268.52 127.017 268.69 128.244H265.673C265.443 127.349 264.932 126.557 264.139 125.866C263.355 125.168 262.298 124.818 260.969 124.818C259.792 124.818 258.761 125.125 257.875 125.739C256.997 126.344 256.311 127.2 255.817 128.308C255.331 129.408 255.088 130.699 255.088 132.182C255.088 133.699 255.327 135.02 255.804 136.145C256.29 137.27 256.971 138.143 257.849 138.766C258.736 139.388 259.775 139.699 260.969 139.699C261.753 139.699 262.464 139.563 263.104 139.29C263.743 139.017 264.284 138.625 264.727 138.114C265.17 137.602 265.486 136.989 265.673 136.273H268.69C268.52 137.432 268.098 138.476 267.425 139.405C266.76 140.325 265.878 141.058 264.778 141.604C263.687 142.141 262.417 142.409 260.969 142.409Z" fill="#FFF1DB"/>
</g>
<defs>
<linearGradient id="paint0_linear_1241_522" x1="97.2527" y1="-148.657" x2="97.2527" y2="176.168" gradientUnits="userSpaceOnUse">
<stop stop-color="#111640"/>
<stop offset="0.145833" stop-color="white"/>
</linearGradient>
<linearGradient id="paint1_linear_1241_522" x1="97.2527" y1="-148.657" x2="97.2527" y2="176.168" gradientUnits="userSpaceOnUse">
<stop stop-color="#111640"/>
<stop offset="0.145833" stop-color="white"/>
</linearGradient>
</defs>
</svg>
