<svg width="1355" height="516" viewBox="0 0 1355 516" fill="none" xmlns="http://www.w3.org/2000/svg">
<g clip-path="url(#clip0_1935_689)">
<mask id="mask0_1935_689" style="mask-type:luminance" maskUnits="userSpaceOnUse" x="90" y="88" width="1175" height="340">
<path d="M1265 88H90V428H1265V88Z" fill="white"/>
</mask>
<g mask="url(#mask0_1935_689)">
<path fill-rule="evenodd" clip-rule="evenodd" d="M1265 336.868V423.283C1265 425.925 1262.83 428.094 1260.19 428.094H1056.58C1054.88 428.094 1053.37 427.245 1052.43 425.736C1051.58 424.226 1051.49 422.528 1052.33 421.019L1156.07 228.472L1159.75 221.679C1162.67 216.302 1164.18 211.019 1164.18 205.83C1164.18 192.717 1156.45 186.208 1140.89 186.208C1134.76 186.208 1129.57 188.472 1125.05 192.906C1125.05 192.906 1125.05 192.906 1125.05 193C1120.52 197.34 1118.25 202.623 1118.25 208.66C1118.25 214.509 1120.42 219.792 1124.76 224.698C1126.18 226.208 1126.37 228.377 1125.33 230.17L1086.66 298.377C1086 299.604 1084.97 300.358 1083.64 300.641C1082.32 300.925 1081 300.736 1079.87 299.981C1064.03 289.509 1051.58 276.396 1042.81 260.83C1033.19 243.755 1028.29 224.981 1028.29 204.509C1028.29 172.528 1039.7 145.264 1062.33 122.528C1085.15 99.6982 1112.6 88.3774 1144.85 88.3774C1177.2 88.3774 1204.74 99.6982 1227.37 122.151C1250.1 144.698 1261.42 172.057 1261.42 204.321C1261.42 222.717 1257.27 239.981 1248.97 255.83L1212.75 325.358C1212 326.868 1212.09 328.566 1212.94 330.075C1213.88 331.585 1215.3 332.34 1217.09 332.34H1260.38C1262.83 332.057 1265 334.226 1265 336.868Z" fill="white"/>
<path fill-rule="evenodd" clip-rule="evenodd" d="M994.707 97.7171V423.189C994.707 425.83 992.538 428 989.898 428H904.548C901.907 428 899.738 425.83 899.738 423.189V97.7171C899.738 95.0756 901.907 92.9058 904.548 92.9058H989.898C992.538 92.9058 994.707 95.0756 994.707 97.7171Z" fill="white"/>
<path fill-rule="evenodd" clip-rule="evenodd" d="M547.683 92.9058H664.533C736.679 92.9058 772.8 121.302 772.8 178C772.8 203.849 762.426 225.736 741.678 243.566C740.452 244.604 739.791 246.113 739.98 247.811C740.169 249.509 741.112 250.83 742.621 251.491C773.837 267.528 789.492 294.226 789.492 331.585C789.492 362.151 778.93 386.585 757.804 404.792C747.525 413.377 736.491 419.415 724.702 422.906C712.913 426.302 697.069 428.094 677.17 428.094H663.024C660.289 428.094 658.214 425.925 658.214 423.283V346.774C658.214 344.132 660.383 341.962 663.024 341.962H675.095C684.998 341.962 692.071 340.736 696.126 338.189H696.22C700.276 335.547 702.351 331.113 702.351 324.792C702.351 313.943 694.051 308.566 677.359 308.566H663.024C660.289 308.566 658.214 306.396 658.214 303.755V223.943C658.214 221.396 660.194 219.321 662.741 219.132C678.113 218.094 685.752 211.774 685.752 200.264C685.752 188.566 677.453 182.811 660.949 182.811H647.368C644.728 182.811 642.558 184.981 642.558 187.623V423.283C642.558 425.925 640.389 428.094 637.749 428.094H547.778C545.137 428.094 542.968 425.925 542.968 423.283V97.7171C542.873 95.0756 545.043 92.9058 547.683 92.9058Z" fill="white"/>
<path fill-rule="evenodd" clip-rule="evenodd" d="M393.772 266.302V344.321C393.772 346.962 391.603 349.132 388.963 349.132H369.912C367.272 349.132 365.102 351.302 365.102 353.849V423.283C365.102 425.925 362.933 428.094 360.293 428.094H270.322C267.681 428.094 265.512 425.925 265.512 423.283V217.057C265.512 176.302 276.735 144.509 299.275 121.868C321.626 99.2264 353.314 88 394.055 88C433.288 88 462.43 98.283 481.197 118.755C500.059 139.226 509.396 170.83 509.396 213.66V423.283C509.396 425.925 507.227 428.094 504.586 428.094H414.615C411.974 428.094 409.805 425.925 409.805 423.283V220.264C409.805 207.34 408.202 198.283 405.09 193.283C401.977 188.189 396.507 185.736 388.397 185.736C372.836 185.736 365.008 197.245 365.008 220.264V256.774C365.008 259.415 367.177 261.585 369.818 261.585H388.868C391.603 261.491 393.772 263.66 393.772 266.302Z" fill="white"/>
<path fill-rule="evenodd" clip-rule="evenodd" d="M94.8098 92.9058H184.781C187.421 92.9058 189.591 95.0756 189.591 97.7171V292.057C189.591 307.528 192.137 318 197.135 323.189C202.134 328.283 211.942 330.925 226.749 330.925H227.126C229.766 330.925 231.936 333.094 231.936 335.736V423.283C231.936 425.925 229.766 428.094 227.126 428.094H205.34C168.937 428.094 140.644 417.528 120.368 396.302C100.091 375.075 90 345.641 90 307.906V97.7171C90 95.0756 92.1691 92.9058 94.8098 92.9058Z" fill="white"/>
</g>
</g>
<defs>
<clipPath id="clip0_1935_689">
<rect width="1175" height="340" fill="white" transform="translate(90 88)"/>
</clipPath>
</defs>
</svg>
