<svg width="1175" height="340" viewBox="0 0 1175 340" fill="none" xmlns="http://www.w3.org/2000/svg">
<g clip-path="url(#clip0_1932_689)">
<mask id="mask0_1932_689" style="mask-type:luminance" maskUnits="userSpaceOnUse" x="0" y="0" width="1175" height="340">
<path d="M1175 0H0V340H1175V0Z" fill="white"/>
</mask>
<g mask="url(#mask0_1932_689)">
<path fill-rule="evenodd" clip-rule="evenodd" d="M1175 248.868V335.283C1175 337.925 1172.83 340.094 1170.19 340.094H966.577C964.88 340.094 963.371 339.245 962.428 337.736C961.579 336.226 961.485 334.528 962.334 333.019L1066.07 140.472L1069.75 133.679C1072.67 128.302 1074.18 123.019 1074.18 117.83C1074.18 104.717 1066.45 98.2076 1050.89 98.2076C1044.76 98.2076 1039.57 100.472 1035.05 104.906C1035.05 104.906 1035.05 104.906 1035.05 105C1030.52 109.34 1028.25 114.623 1028.25 120.66C1028.25 126.509 1030.42 131.792 1034.76 136.698C1036.18 138.208 1036.37 140.377 1035.33 142.17L996.662 210.377C996.002 211.604 994.965 212.358 993.644 212.641C992.324 212.925 991.004 212.736 989.872 211.981C974.028 201.509 961.579 188.396 952.808 172.83C943.189 155.755 938.285 136.981 938.285 116.509C938.285 84.5284 949.696 57.2642 972.33 34.5284C995.153 11.6982 1022.6 0.377441 1054.85 0.377441C1087.2 0.377441 1114.74 11.6982 1137.37 34.151C1160.1 56.6982 1171.42 84.0567 1171.42 116.321C1171.42 134.717 1167.27 151.981 1158.97 167.83L1122.75 237.358C1122 238.868 1122.09 240.566 1122.94 242.075C1123.88 243.585 1125.3 244.34 1127.09 244.34H1170.38C1172.83 244.057 1175 246.226 1175 248.868Z" fill="white"/>
<path fill-rule="evenodd" clip-rule="evenodd" d="M904.707 9.71708V335.189C904.707 337.83 902.538 340 899.898 340H814.548C811.907 340 809.738 337.83 809.738 335.189V9.71708C809.738 7.07557 811.907 4.90576 814.548 4.90576H899.898C902.538 4.90576 904.707 7.07557 904.707 9.71708Z" fill="white"/>
<path fill-rule="evenodd" clip-rule="evenodd" d="M457.683 4.90576H574.533C646.679 4.90576 682.8 33.302 682.8 90.0001C682.8 115.849 672.426 137.736 651.678 155.566C650.452 156.604 649.791 158.113 649.98 159.811C650.169 161.509 651.112 162.83 652.621 163.491C683.837 179.528 699.492 206.226 699.492 243.585C699.492 274.151 688.93 298.585 667.804 316.792C657.525 325.377 646.491 331.415 634.702 334.906C622.913 338.302 607.069 340.094 587.17 340.094H573.024C570.289 340.094 568.214 337.925 568.214 335.283V258.774C568.214 256.132 570.383 253.962 573.024 253.962H585.095C594.998 253.962 602.071 252.736 606.126 250.189H606.22C610.276 247.547 612.351 243.113 612.351 236.792C612.351 225.943 604.051 220.566 587.359 220.566H573.024C570.289 220.566 568.214 218.396 568.214 215.755V135.943C568.214 133.396 570.194 131.321 572.741 131.132C588.113 130.094 595.752 123.774 595.752 112.264C595.752 100.566 587.453 94.8114 570.949 94.8114H557.368C554.728 94.8114 552.558 96.9812 552.558 99.6228V335.283C552.558 337.925 550.389 340.094 547.749 340.094H457.778C455.137 340.094 452.968 337.925 452.968 335.283V9.71708C452.873 7.07557 455.043 4.90576 457.683 4.90576Z" fill="white"/>
<path fill-rule="evenodd" clip-rule="evenodd" d="M303.772 178.302V256.321C303.772 258.962 301.603 261.132 298.963 261.132H279.912C277.272 261.132 275.102 263.302 275.102 265.849V335.283C275.102 337.925 272.933 340.094 270.293 340.094H180.322C177.681 340.094 175.512 337.925 175.512 335.283V129.057C175.512 88.3019 186.735 56.5094 209.275 33.8679C231.626 11.2264 263.314 0 304.055 0C343.288 0 372.43 10.283 391.197 30.7547C410.059 51.2264 419.396 82.8302 419.396 125.66V335.283C419.396 337.925 417.227 340.094 414.586 340.094H324.615C321.974 340.094 319.805 337.925 319.805 335.283V132.264C319.805 119.34 318.202 110.283 315.09 105.283C311.977 100.189 306.507 97.7358 298.397 97.7358C282.836 97.7358 275.008 109.245 275.008 132.264V168.774C275.008 171.415 277.177 173.585 279.818 173.585H298.868C301.603 173.491 303.772 175.66 303.772 178.302Z" fill="white"/>
<path fill-rule="evenodd" clip-rule="evenodd" d="M4.80978 4.90576H94.7809C97.4215 4.90576 99.5907 7.07557 99.5907 9.71708V204.057C99.5907 219.528 102.137 230 107.135 235.189C112.134 240.283 121.942 242.925 136.749 242.925H137.126C139.766 242.925 141.936 245.094 141.936 247.736V335.283C141.936 337.925 139.766 340.094 137.126 340.094H115.34C78.9369 340.094 50.6441 329.528 30.3676 308.302C10.0911 287.075 0 257.641 0 219.906V9.71708C0 7.07557 2.16911 4.90576 4.80978 4.90576Z" fill="white"/>
</g>
</g>
<defs>
<clipPath id="clip0_1932_689">
<rect width="1175" height="340" fill="white"/>
</clipPath>
</defs>
</svg>
