<svg width="1175" height="340" viewBox="0 0 1175 340" fill="none" xmlns="http://www.w3.org/2000/svg">
<g clip-path="url(#clip0_4_42)">
<path fill-rule="evenodd" clip-rule="evenodd" d="M1175 248.868V335.283C1175 337.925 1172.83 340.094 1170.19 340.094H966.576C964.879 340.094 963.37 339.245 962.427 337.736C961.578 336.226 961.484 334.528 962.333 333.019L1066.07 140.472L1069.75 133.679C1072.67 128.302 1074.18 123.019 1074.18 117.83C1074.18 104.717 1066.45 98.2075 1050.89 98.2075C1044.76 98.2075 1039.57 100.472 1035.05 104.906C1035.05 104.906 1035.05 104.906 1035.05 105C1030.52 109.34 1028.25 114.623 1028.25 120.66C1028.25 126.509 1030.42 131.792 1034.76 136.698C1036.18 138.208 1036.37 140.377 1035.33 142.17L996.661 210.377C996.001 211.604 994.964 212.358 993.643 212.641C992.323 212.925 991.003 212.736 989.871 211.981C974.027 201.509 961.578 188.396 952.807 172.83C943.188 155.755 938.284 136.981 938.284 116.509C938.284 84.5283 949.695 57.2641 972.329 34.5283C995.152 11.6981 1022.6 0.37735 1054.85 0.37735C1087.2 0.37735 1114.74 11.6981 1137.37 34.1509C1160.1 56.6981 1171.42 84.0566 1171.42 116.321C1171.42 134.717 1167.27 151.981 1158.97 167.83L1122.75 237.358C1122 238.868 1122.09 240.566 1122.94 242.075C1123.88 243.585 1125.3 244.34 1127.09 244.34H1170.38C1172.83 244.057 1175 246.226 1175 248.868Z" fill="black"/>
<path fill-rule="evenodd" clip-rule="evenodd" d="M904.709 9.71699V335.189C904.709 337.83 902.54 340 899.9 340H814.55C811.909 340 809.74 337.83 809.74 335.189V9.71699C809.74 7.07548 811.909 4.90567 814.55 4.90567H899.9C902.54 4.90567 904.709 7.07548 904.709 9.71699Z" fill="black"/>
<path fill-rule="evenodd" clip-rule="evenodd" d="M457.683 4.90567H574.533C646.679 4.90567 682.8 33.3019 682.8 90C682.8 115.849 672.426 137.736 651.678 155.566C650.452 156.604 649.791 158.113 649.98 159.811C650.169 161.509 651.112 162.83 652.621 163.491C683.837 179.528 699.492 206.226 699.492 243.585C699.492 274.151 688.93 298.585 667.804 316.792C657.525 325.377 646.491 331.415 634.702 334.906C622.913 338.302 607.069 340.094 587.17 340.094H573.024C570.289 340.094 568.214 337.925 568.214 335.283V258.774C568.214 256.132 570.383 253.962 573.024 253.962H585.095C594.998 253.962 602.071 252.736 606.126 250.189H606.22C610.276 247.547 612.351 243.113 612.351 236.792C612.351 225.943 604.051 220.566 587.359 220.566H573.024C570.289 220.566 568.214 218.396 568.214 215.755V135.943C568.214 133.396 570.194 131.321 572.741 131.132C588.113 130.094 595.752 123.774 595.752 112.264C595.752 100.566 587.453 94.8113 570.949 94.8113H557.368C554.728 94.8113 552.558 96.9811 552.558 99.6227V335.283C552.558 337.925 550.389 340.094 547.749 340.094H457.778C455.137 340.094 452.968 337.925 452.968 335.283V9.71699C452.873 7.07548 455.043 4.90567 457.683 4.90567Z" fill="black"/>
<path fill-rule="evenodd" clip-rule="evenodd" d="M303.77 178.302V256.321C303.77 258.962 301.601 261.132 298.961 261.132H279.91C277.27 261.132 275.1 263.302 275.1 265.849V335.283C275.1 337.925 272.931 340.094 270.291 340.094H180.32C177.679 340.094 175.51 337.925 175.51 335.283V129.057C175.51 88.3019 186.733 56.5094 209.273 33.8679C231.624 11.2264 263.312 0 304.053 0C343.286 0 372.428 10.283 391.195 30.7547C410.057 51.2264 419.394 82.8302 419.394 125.66V335.283C419.394 337.925 417.225 340.094 414.584 340.094H324.613C321.972 340.094 319.803 337.925 319.803 335.283V132.264C319.803 119.34 318.2 110.283 315.088 105.283C311.975 100.189 306.505 97.7358 298.395 97.7358C282.834 97.7358 275.006 109.245 275.006 132.264V168.774C275.006 171.415 277.175 173.585 279.816 173.585H298.866C301.601 173.491 303.77 175.66 303.77 178.302Z" fill="black"/>
<path fill-rule="evenodd" clip-rule="evenodd" d="M4.80978 4.90567H94.7809C97.4215 4.90567 99.5907 7.07548 99.5907 9.71699V204.057C99.5907 219.528 102.137 230 107.135 235.189C112.134 240.283 121.942 242.925 136.749 242.925H137.126C139.766 242.925 141.936 245.094 141.936 247.736V335.283C141.936 337.925 139.766 340.094 137.126 340.094H115.34C78.9369 340.094 50.6441 329.528 30.3676 308.302C10.0911 287.075 0 257.641 0 219.906V9.71699C0 7.07548 2.16911 4.90567 4.80978 4.90567Z" fill="black"/>
</g>
<defs>
<clipPath id="clip0_4_42">
<rect width="1175" height="340" fill="white"/>
</clipPath>
</defs>
</svg>
