<?xml version="1.0" encoding="utf-8"?>
<!-- Generator: Adobe Illustrator 24.0.1, SVG Export Plug-In . SVG Version: 6.00 Build 0)  -->
<svg version="1.1" id="Layer_1" xmlns="http://www.w3.org/2000/svg" xmlns:xlink="http://www.w3.org/1999/xlink" x="0px" y="0px"
	 viewBox="0 0 124.59 36.04" style="enable-background:new 0 0 124.59 36.04;" xml:space="preserve">
<style type="text/css">
	.st0{fill-rule:evenodd;clip-rule:evenodd;fill:#ffffff;}
</style>
<path class="st0" d="M124.59,26.38v9.16c0,0.28-0.23,0.51-0.51,0.51h-21.59c-0.18,0-0.34-0.09-0.44-0.25
	c-0.09-0.16-0.1-0.34-0.01-0.5l11-20.41l0.39-0.72c0.31-0.57,0.47-1.13,0.47-1.68c0-1.39-0.82-2.08-2.47-2.08
	c-0.65,0-1.2,0.24-1.68,0.71c0,0,0,0,0,0.01c-0.48,0.46-0.72,1.02-0.72,1.66c0,0.62,0.23,1.18,0.69,1.7
	c0.15,0.16,0.17,0.39,0.06,0.58l-4.1,7.23c-0.07,0.13-0.18,0.21-0.32,0.24c-0.14,0.03-0.28,0.01-0.4-0.07
	c-1.68-1.11-3-2.5-3.93-4.15c-1.02-1.81-1.54-3.8-1.54-5.97c0-3.39,1.21-6.28,3.61-8.69c2.42-2.42,5.33-3.62,8.75-3.62
	c3.43,0,6.35,1.2,8.75,3.58c2.41,2.39,3.61,5.29,3.61,8.71c0,1.95-0.44,3.78-1.32,5.46l-3.84,7.37c-0.08,0.16-0.07,0.34,0.02,0.5
	c0.1,0.16,0.25,0.24,0.44,0.24h4.59C124.36,25.87,124.59,26.1,124.59,26.38z"/>
<path class="st0" d="M95.93,1.03v34.5c0,0.28-0.23,0.51-0.51,0.51h-9.05c-0.28,0-0.51-0.23-0.51-0.51V1.03
	c0-0.28,0.23-0.51,0.51-0.51h9.05C95.7,0.52,95.93,0.75,95.93,1.03z"/>
<path class="st0" d="M48.53,0.52h12.39c7.65,0,11.48,3.01,11.48,9.02c0,2.74-1.1,5.06-3.3,6.95c-0.13,0.11-0.2,0.27-0.18,0.45
	c0.02,0.18,0.12,0.32,0.28,0.39c3.31,1.7,4.97,4.53,4.97,8.49c0,3.24-1.12,5.83-3.36,7.76c-1.09,0.91-2.26,1.55-3.51,1.92
	c-1.25,0.36-2.93,0.55-5.04,0.55h-1.5c-0.29,0-0.51-0.23-0.51-0.51v-8.11c0-0.28,0.23-0.51,0.51-0.51h1.28c1.05,0,1.8-0.13,2.23-0.4
	c0,0,0.01,0,0.01,0c0.43-0.28,0.65-0.75,0.65-1.42c0-1.15-0.88-1.72-2.65-1.72h-1.52c-0.29,0-0.51-0.23-0.51-0.51v-8.46
	c0-0.27,0.21-0.49,0.48-0.51c1.63-0.11,2.44-0.78,2.44-2c0-1.24-0.88-1.85-2.63-1.85h-1.44c-0.28,0-0.51,0.23-0.51,0.51v24.98
	c0,0.28-0.23,0.51-0.51,0.51h-9.54c-0.28,0-0.51-0.23-0.51-0.51V1.03C48.02,0.75,48.25,0.52,48.53,0.52z"/>
<path class="st0" d="M32.21,18.9v8.27c0,0.28-0.23,0.51-0.51,0.51h-2.02c-0.28,0-0.51,0.23-0.51,0.5v7.36
	c0,0.28-0.23,0.51-0.51,0.51h-9.54c-0.28,0-0.51-0.23-0.51-0.51V13.68c0-4.32,1.19-7.69,3.58-10.09C24.56,1.19,27.92,0,32.24,0
	c4.16,0,7.25,1.09,9.24,3.26c2,2.17,2.99,5.52,2.99,10.06v22.22c0,0.28-0.23,0.51-0.51,0.51h-9.54c-0.28,0-0.51-0.23-0.51-0.51
	V14.02c0-1.37-0.17-2.33-0.5-2.86c-0.33-0.54-0.91-0.8-1.77-0.8c-1.65,0-2.48,1.22-2.48,3.66v3.87c0,0.28,0.23,0.51,0.51,0.51h2.02
	C31.98,18.39,32.21,18.62,32.21,18.9z"/>
<path class="st0" d="M0.51,0.52h9.54c0.28,0,0.51,0.23,0.51,0.51v20.6c0,1.64,0.27,2.75,0.8,3.3c0.53,0.54,1.57,0.82,3.14,0.82h0.04
	c0.28,0,0.51,0.23,0.51,0.51v9.28c0,0.28-0.23,0.51-0.51,0.51h-2.31c-3.86,0-6.86-1.12-9.01-3.37C1.07,30.43,0,27.31,0,23.31V1.03
	C0,0.75,0.23,0.52,0.51,0.52z"/>
</svg>
