<svg width="68" height="68" viewBox="0 0 68 68" fill="none" xmlns="http://www.w3.org/2000/svg">
<g clip-path="url(#clip0_2329_726)">
<rect x="34" y="0.0588989" width="48" height="48" rx="9" transform="rotate(45 34 0.0588989)" fill="#272727"/>
<path fill-rule="evenodd" clip-rule="evenodd" d="M0.460767 33.3303C0.224368 33.7239 0.286269 34.2278 0.610879 34.5524L32.2925 66.234C32.9225 66.864 33.9996 66.4178 33.9996 65.5269L33.9996 55.6274C33.9996 55.3622 33.8942 55.1078 33.7067 54.9203L26.2214 47.435C25.8309 47.0445 25.8309 46.4113 26.2214 46.0208L33.7067 38.5355C33.8943 38.348 33.9996 38.0936 33.9996 37.8284L33.9996 29.3431C33.9996 28.4522 32.9225 28.0061 32.2925 28.636L20.5646 40.364C20.1741 40.7545 19.5409 40.7545 19.1504 40.364L14.2006 35.4142C13.8101 35.0237 13.8101 34.3905 14.2006 34L33.7067 14.4939C33.8942 14.3064 33.9996 14.052 33.9996 13.7868L33.9996 -0.860622C33.9996 -6.94427 25.9891 -9.16537 22.8563 -3.95036L0.460767 33.3303Z" fill="white"/>
<path d="M53.7992 34L42.7784 22.9792C42.1484 22.3492 41.0713 22.7954 41.0713 23.6863V45.7279C41.0713 46.6188 42.1484 47.065 42.7784 46.435L53.7992 35.4142C54.1897 35.0237 54.1897 34.3905 53.7992 34Z" fill="white"/>
</g>
<defs>
<clipPath id="clip0_2329_726">
<rect x="34" y="0.0588989" width="48" height="48" rx="9" transform="rotate(45 34 0.0588989)" fill="white"/>
</clipPath>
</defs>
</svg>
