<svg width="160" height="160" viewBox="0 0 160 160" fill="none" xmlns="http://www.w3.org/2000/svg">
<g clip-path="url(#clip0_2358_724)">
<mask id="mask0_2358_724" style="mask-type:luminance" maskUnits="userSpaceOnUse" x="4" y="4" width="152" height="152">
<path d="M148.943 64.0902L95.9098 11.0571C87.123 2.27035 72.8768 2.27035 64.09 11.0571L11.057 64.0902C2.27017 72.877 2.27017 87.1232 11.057 95.91L64.09 148.943C72.8768 157.73 87.123 157.73 95.9098 148.943L148.943 95.91C157.73 87.1232 157.73 72.877 148.943 64.0902Z" fill="white"/>
</mask>
<g mask="url(#mask0_2358_724)">
<path fill-rule="evenodd" clip-rule="evenodd" d="M-3.84819 78.3258C-4.43919 79.3098 -4.28444 80.5695 -3.47291 81.381L75.7311 160.585C77.3061 162.16 79.9989 161.044 79.9989 158.817V134.068C79.9989 133.406 79.7354 132.77 79.2666 132.301L60.5534 113.588C59.5771 112.611 59.5771 111.028 60.5534 110.052L79.2666 91.3388C79.7356 90.87 79.9989 90.234 79.9989 89.571V68.3577C79.9989 66.1305 77.3061 65.0152 75.7311 66.59L46.4114 95.91C45.4351 96.8862 43.8521 96.8862 42.8759 95.91L30.5014 83.5355C29.5251 82.5592 29.5251 80.9762 30.5014 80L79.2666 31.2347C79.7356 30.766 79.9989 30.13 79.9989 29.467V-7.15156C79.9989 -22.3607 59.9726 -27.9134 52.1406 -14.8759L-3.84819 78.3258Z" fill="url(#paint0_linear_2358_724)"/>
<path d="M129.498 80L101.946 52.448C100.371 50.873 97.6782 51.9885 97.6782 54.2157V109.32C97.6782 111.547 100.371 112.662 101.946 111.087L129.498 83.5355C130.474 82.5592 130.474 80.9762 129.498 80Z" fill="url(#paint1_linear_2358_724)"/>
</g>
</g>
<defs>
<linearGradient id="paint0_linear_2358_724" x1="37.8968" y1="-22.1776" x2="44.2585" y2="161.866" gradientUnits="userSpaceOnUse">
<stop stop-color="#FA9947"/>
<stop offset="0.353009" stop-color="#FFCB9F"/>
<stop offset="0.859375" stop-color="#A75F22"/>
</linearGradient>
<linearGradient id="paint1_linear_2358_724" x1="113.954" y1="51.7107" x2="115.721" y2="112.023" gradientUnits="userSpaceOnUse">
<stop stop-color="#FA9947"/>
<stop offset="0.353009" stop-color="#FFCB9F"/>
<stop offset="0.859375" stop-color="#A75F22"/>
</linearGradient>
<clipPath id="clip0_2358_724">
<rect width="160" height="160" fill="white"/>
</clipPath>
</defs>
</svg>
