<svg width="259" height="135" viewBox="0 0 259 135" fill="none" xmlns="http://www.w3.org/2000/svg">
<g style="mix-blend-mode:difference" opacity="0.3">
<mask id="mask0_1648_1097" style="mask-type:alpha" maskUnits="userSpaceOnUse" x="21" y="6" width="130" height="129">
<circle cx="85.7852" cy="70.4615" r="34.5827" stroke="#D1FFF1" stroke-width="59.6551" stroke-linecap="round"/>
</mask>
<g mask="url(#mask0_1648_1097)">
<g style="mix-blend-mode:color" opacity="0.8">
<rect x="-54.3376" y="-95.3034" width="298.829" height="214.391" fill="#404B48"/>
<rect x="-54.3376" y="-95.3034" width="298.829" height="214.391" stroke="#404B48" stroke-width="66.442" stroke-linecap="round"/>
</g>
</g>
</g>
<path d="M8.316 93L8.316 62.424H1.26L1.26 50.58H8.316V49.236C8.316 43.916 9.856 39.772 12.936 36.804C16.016 33.836 20.3 32.352 25.788 32.352C29.26 32.352 32.62 32.856 35.868 33.864L33.936 44.616C31.864 44.168 30.156 43.944 28.812 43.944C25.284 43.944 23.52 45.652 23.52 49.068V50.58H33.096V62.424H23.52L23.52 93H8.316ZM39.984 93L39.984 48.9H55.188L55.188 93L39.984 93ZM39.9 44.028L39.9 33.024H55.272L55.272 44.028L39.9 44.028ZM93.6528 93V88.044C90.5728 92.244 86.2888 94.344 80.8008 94.344C75.2008 94.344 70.8608 92.356 67.7808 88.38C64.7008 84.404 63.1608 78.804 63.1608 71.58C63.1608 66.54 63.9168 62.228 65.4288 58.644C66.9408 55.004 69.0688 52.26 71.8128 50.412C74.6128 48.508 77.8888 47.556 81.6408 47.556C86.5688 47.556 90.4328 49.292 93.2328 52.764V33.024H108.437L108.437 93H93.6528ZM93.2328 70.404C93.2328 66.596 92.6448 63.852 91.4688 62.172C90.2928 60.492 88.4728 59.652 86.0088 59.652C81.0248 59.652 78.5328 63.404 78.5328 70.908C78.5328 78.356 80.9968 82.08 85.9248 82.08C88.3888 82.08 90.2368 81.156 91.4688 79.308C92.6448 77.628 93.2328 75.08 93.2328 71.664V70.404ZM159.743 78.804C158.847 83.956 156.635 87.848 153.107 90.48C149.579 93.056 144.791 94.344 138.743 94.344C131.463 94.344 125.919 92.412 122.111 88.548C118.303 84.684 116.399 79.056 116.399 71.664C116.399 64.104 118.387 58.196 122.363 53.94C126.339 49.684 131.855 47.556 138.911 47.556C145.575 47.556 150.755 49.516 154.451 53.436C158.203 57.3 160.079 62.732 160.079 69.732V74.52H131.015C131.239 77.656 131.939 79.924 133.115 81.324C134.291 82.724 136.111 83.424 138.575 83.424C142.383 83.424 144.707 81.884 145.547 78.804H159.743ZM146.051 65.868C145.939 63.236 145.295 61.332 144.119 60.156C142.999 58.924 141.263 58.308 138.911 58.308C134.207 58.308 131.575 60.828 131.015 65.868H146.051ZM168.026 93V33.024H183.23V93H168.026ZM192.472 93V48.9H207.676V93H192.472ZM192.388 44.028V33.024L207.76 33.024V44.028H192.388ZM241.697 62.424C241.305 60.8 240.605 59.652 239.597 58.98C238.589 58.252 237.133 57.888 235.229 57.888C233.437 57.888 232.065 58.196 231.113 58.812C230.217 59.372 229.769 60.184 229.769 61.248C229.769 62.144 230.133 62.844 230.861 63.348C231.589 63.852 232.905 64.272 234.809 64.608L239.849 65.532C245.729 66.596 249.929 68.192 252.449 70.32C254.969 72.448 256.229 75.5 256.229 79.476C256.229 89.388 249.537 94.344 236.153 94.344C229.321 94.344 224.085 93.056 220.445 90.48C216.861 87.848 214.901 83.984 214.565 78.888H228.929C229.489 81.912 231.841 83.424 235.985 83.424C237.889 83.424 239.261 83.172 240.101 82.668C240.997 82.108 241.445 81.212 241.445 79.98C241.445 79.028 241.109 78.3 240.437 77.796C239.765 77.236 238.673 76.816 237.161 76.536L232.037 75.696C226.325 74.8 222.125 73.232 219.437 70.992C216.805 68.752 215.489 65.728 215.489 61.92C215.489 57.328 217.197 53.8 220.613 51.336C224.029 48.816 228.901 47.556 235.229 47.556C241.165 47.556 245.869 48.704 249.341 51C252.813 53.24 254.941 56.572 255.725 60.996L241.697 62.424Z" fill="#404B48"/>
<path d="M39.392 122H42.032C44.864 122 46.608 120.32 46.608 116.32C46.608 112.56 44.976 110.8 42.24 110.8H39.392V122ZM41.12 120.528V112.288H42.16C44.016 112.288 44.88 113.504 44.88 116.368C44.88 119.488 43.904 120.528 42.16 120.528H41.12ZM51.7538 122H56.8578V120.64H55.1618V112.16H56.8578V110.8H51.7538V112.16H53.4498V120.64H51.7538V122ZM65.7635 122.176C68.0035 122.176 69.4275 120.912 69.4275 119.024C69.4275 117.28 68.5475 116.4 66.2275 115.472C64.4035 114.752 64.0355 114.32 64.0355 113.472C64.0355 112.736 64.5315 112.128 65.7155 112.128C66.7235 112.128 67.3475 112.512 68.1315 113.264L69.2355 112.032C68.3395 111.152 67.3955 110.624 65.7955 110.624C63.7155 110.624 62.3395 111.808 62.3395 113.584C62.3395 115.28 63.2355 116.096 65.4755 116.976C67.2995 117.696 67.7155 118.224 67.7155 119.136C67.7155 120.096 67.0115 120.672 65.8115 120.672C64.8035 120.672 63.9235 120.16 63.1555 119.312L62.0515 120.48C62.9155 121.488 64.1795 122.176 65.7635 122.176ZM76.4932 122H78.2052V112.32H81.1972V110.8H73.4852V112.32H76.4932V122ZM85.447 122H87.175V117.312L88.871 117.312L90.727 122H92.567L90.551 117.008C91.767 116.576 92.551 115.568 92.551 114C92.551 111.776 91.143 110.8 89.239 110.8L85.447 110.8V122ZM87.175 115.888V112.256L89.143 112.256C90.311 112.256 90.871 112.848 90.871 114.048C90.871 115.296 90.295 115.888 89.063 115.888L87.175 115.888ZM97.8087 122H102.913V120.64H101.217V112.16H102.913V110.8H97.8087V112.16H99.5047V120.64H97.8087V122ZM108.522 122H112.218C114.442 122 115.674 120.896 115.674 118.672C115.674 117.056 114.794 116.304 113.85 115.968C114.682 115.6 115.322 114.928 115.322 113.664C115.322 111.776 114.186 110.8 112.266 110.8H108.522V122ZM110.202 115.36V112.24H112.154C113.162 112.24 113.642 112.784 113.642 113.76C113.642 114.688 113.194 115.36 112.106 115.36H110.202ZM110.202 120.56V116.768H112.154C113.322 116.768 113.994 117.44 113.994 118.704C113.994 119.92 113.482 120.56 112.234 120.56H110.202ZM123.38 122.176C125.604 122.176 126.9 120.784 126.9 118.16V110.8H125.188V118.192C125.188 119.84 124.676 120.64 123.428 120.64C122.18 120.64 121.604 119.824 121.604 118.176V110.8H119.892V118.176C119.892 120.8 121.204 122.176 123.38 122.176ZM134.062 122H135.774V112.32H138.766V110.8H131.054V112.32H134.062V122ZM143.864 122H148.968V120.64H147.272V112.16H148.968V110.8H143.864V112.16H145.56V120.64H143.864V122ZM157.921 122.176C160.305 122.176 161.761 120.048 161.761 116.4C161.761 112.72 160.321 110.624 157.937 110.624C155.569 110.624 154.113 112.752 154.113 116.4C154.113 120.08 155.537 122.176 157.921 122.176ZM157.953 120.656C156.625 120.656 155.857 119.392 155.857 116.4C155.857 113.392 156.577 112.144 157.905 112.144C159.249 112.144 160.017 113.408 160.017 116.4C160.017 119.408 159.281 120.656 157.953 120.656ZM166.011 122H167.531V115.904C167.531 115.2 167.515 114.08 167.483 113.696C167.723 114.288 168.187 115.36 168.667 116.288L171.515 122H172.891V110.8H171.371V116.592C171.371 117.312 171.387 118.432 171.419 118.832C171.195 118.272 170.715 117.168 170.219 116.192L167.531 110.8H166.011V122ZM189.279 122H196.159V120.48H190.991V110.8H189.279V122ZM200.793 122H207.673V120.48H202.505V110.8H200.793V122ZM215.778 122.176C217.57 122.176 218.594 121.184 219.266 119.776L217.874 119.024C217.314 120.128 216.802 120.672 215.826 120.672C214.354 120.672 213.458 119.296 213.458 116.4C213.458 113.488 214.338 112.128 215.794 112.128C216.738 112.128 217.218 112.608 217.746 113.76L219.218 113.072C218.546 111.488 217.586 110.624 215.81 110.624C213.298 110.624 211.73 112.784 211.73 116.4C211.73 119.984 213.186 122.176 215.778 122.176Z" fill="#404B48"/>
</svg>
