<svg width="275" height="258" viewBox="0 0 275 258" fill="none" xmlns="http://www.w3.org/2000/svg">
<g clip-path="url(#clip0_928_443)">
<g opacity="0.3">
<mask id="mask0_928_443" style="mask-type:alpha" maskUnits="userSpaceOnUse" x="28" y="25" width="223" height="222">
<circle cx="139.291" cy="136.042" r="72.5" transform="rotate(-60.0121 139.291 136.042)" stroke="#F8F8EC" stroke-width="76.85" stroke-linecap="round"/>
</mask>
<g mask="url(#mask0_928_443)">
<rect x="-20.4688" y="43.0098" width="134.85" height="185.6" transform="rotate(-60.0121 -20.4688 43.0098)" fill="url(#paint0_linear_928_443)"/>
</g>
</g>
<g style="mix-blend-mode:screen" opacity="0.6">
<mask id="mask1_928_443" style="mask-type:alpha" maskUnits="userSpaceOnUse" x="28" y="25" width="223" height="222">
<circle cx="139.289" cy="136.039" r="110.381" transform="rotate(104.855 139.289 136.039)" stroke="url(#paint1_linear_928_443)" stroke-width="1.0875" stroke-linecap="round"/>
</mask>
<g mask="url(#mask1_928_443)">
<rect x="317.136" y="184.523" width="133.762" height="184.513" transform="rotate(104.855 317.136 184.523)" fill="#F8F8EC" stroke="#F8F8EC" stroke-width="1.0875" stroke-linecap="round"/>
</g>
</g>
<g style="mix-blend-mode:screen" opacity="0.7">
<mask id="mask2_928_443" style="mask-type:alpha" maskUnits="userSpaceOnUse" x="5" y="2" width="269" height="269">
<circle cx="139.287" cy="136.04" r="132.582" transform="rotate(0.503265 139.287 136.04)" stroke="url(#paint2_linear_928_443)" stroke-width="2.9" stroke-linecap="round"/>
</mask>
<g mask="url(#mask2_928_443)">
<rect x="143.562" y="-85.8674" width="160.041" height="221.362" transform="rotate(0.503265 143.562 -85.8674)" fill="#F8F8EC" stroke="#F8F8EC" stroke-width="2.9" stroke-linecap="round"/>
</g>
</g>
<g opacity="0.3">
<mask id="mask3_928_443" style="mask-type:alpha" maskUnits="userSpaceOnUse" x="11" y="8" width="257" height="256">
<circle cx="139.288" cy="136.04" r="121.987" transform="rotate(71.4549 139.288 136.04)" stroke="url(#paint3_linear_928_443)" stroke-width="11.6" stroke-linecap="round"/>
</mask>
<g mask="url(#mask3_928_443)">
<rect x="337.819" y="76.4373" width="143.749" height="202.213" transform="rotate(71.4549 337.819 76.4373)" fill="#F8F8EC" stroke="#F8F8EC" stroke-width="11.6" stroke-linecap="round"/>
</g>
</g>
<path d="M8.316 159V128.424H1.26V116.58H8.316V115.236C8.316 109.916 9.856 105.772 12.936 102.804C16.016 99.836 20.3 98.352 25.788 98.352C29.26 98.352 32.62 98.856 35.868 99.864L33.936 110.616C31.864 110.168 30.156 109.944 28.812 109.944C25.284 109.944 23.52 111.652 23.52 115.068V116.58H33.096V128.424H23.52V159H8.316ZM39.984 159V114.9H55.188V159H39.984ZM39.9 110.028V99.024H55.272V110.028H39.9ZM93.6528 159V154.044C90.5728 158.244 86.2888 160.344 80.8008 160.344C75.2008 160.344 70.8608 158.356 67.7808 154.38C64.7008 150.404 63.1608 144.804 63.1608 137.58C63.1608 132.54 63.9168 128.228 65.4288 124.644C66.9408 121.004 69.0688 118.26 71.8128 116.412C74.6128 114.508 77.8888 113.556 81.6408 113.556C86.5688 113.556 90.4328 115.292 93.2328 118.764V99.024H108.437V159H93.6528ZM93.2328 136.404C93.2328 132.596 92.6448 129.852 91.4688 128.172C90.2928 126.492 88.4728 125.652 86.0088 125.652C81.0248 125.652 78.5328 129.404 78.5328 136.908C78.5328 144.356 80.9968 148.08 85.9248 148.08C88.3888 148.08 90.2368 147.156 91.4688 145.308C92.6448 143.628 93.2328 141.08 93.2328 137.664V136.404ZM159.743 144.804C158.847 149.956 156.635 153.848 153.107 156.48C149.579 159.056 144.791 160.344 138.743 160.344C131.463 160.344 125.919 158.412 122.111 154.548C118.303 150.684 116.399 145.056 116.399 137.664C116.399 130.104 118.387 124.196 122.363 119.94C126.339 115.684 131.855 113.556 138.911 113.556C145.575 113.556 150.755 115.516 154.451 119.436C158.203 123.3 160.079 128.732 160.079 135.732V140.52H131.015C131.239 143.656 131.939 145.924 133.115 147.324C134.291 148.724 136.111 149.424 138.575 149.424C142.383 149.424 144.707 147.884 145.547 144.804H159.743ZM146.051 131.868C145.939 129.236 145.295 127.332 144.119 126.156C142.999 124.924 141.263 124.308 138.911 124.308C134.207 124.308 131.575 126.828 131.015 131.868H146.051ZM168.026 159V99.024H183.23V159H168.026ZM192.472 159V114.9H207.676V159H192.472ZM192.388 110.028V99.024H207.76V110.028H192.388ZM241.697 128.424C241.305 126.8 240.605 125.652 239.597 124.98C238.589 124.252 237.133 123.888 235.229 123.888C233.437 123.888 232.065 124.196 231.113 124.812C230.217 125.372 229.769 126.184 229.769 127.248C229.769 128.144 230.133 128.844 230.861 129.348C231.589 129.852 232.905 130.272 234.809 130.608L239.849 131.532C245.729 132.596 249.929 134.192 252.449 136.32C254.969 138.448 256.229 141.5 256.229 145.476C256.229 155.388 249.537 160.344 236.153 160.344C229.321 160.344 224.085 159.056 220.445 156.48C216.861 153.848 214.901 149.984 214.565 144.888H228.929C229.489 147.912 231.841 149.424 235.985 149.424C237.889 149.424 239.261 149.172 240.101 148.668C240.997 148.108 241.445 147.212 241.445 145.98C241.445 145.028 241.109 144.3 240.437 143.796C239.765 143.236 238.673 142.816 237.161 142.536L232.037 141.696C226.325 140.8 222.125 139.232 219.437 136.992C216.805 134.752 215.489 131.728 215.489 127.92C215.489 123.328 217.197 119.8 220.613 117.336C224.029 114.816 228.901 113.556 235.229 113.556C241.165 113.556 245.869 114.704 249.341 117C252.813 119.24 254.941 122.572 255.725 126.996L241.697 128.424Z" fill="#F8F8EC"/>
<path opacity="0.85" d="M41.392 188H44.032C46.864 188 48.608 186.32 48.608 182.32C48.608 178.56 46.976 176.8 44.24 176.8H41.392V188ZM43.12 186.528V178.288H44.16C46.016 178.288 46.88 179.504 46.88 182.368C46.88 185.488 45.904 186.528 44.16 186.528H43.12ZM53.7538 188H58.8578V186.64H57.1618V178.16H58.8578V176.8H53.7538V178.16H55.4498V186.64H53.7538V188ZM67.7635 188.176C70.0035 188.176 71.4275 186.912 71.4275 185.024C71.4275 183.28 70.5475 182.4 68.2275 181.472C66.4035 180.752 66.0355 180.32 66.0355 179.472C66.0355 178.736 66.5315 178.128 67.7155 178.128C68.7235 178.128 69.3475 178.512 70.1315 179.264L71.2355 178.032C70.3395 177.152 69.3955 176.624 67.7955 176.624C65.7155 176.624 64.3395 177.808 64.3395 179.584C64.3395 181.28 65.2355 182.096 67.4755 182.976C69.2995 183.696 69.7155 184.224 69.7155 185.136C69.7155 186.096 69.0115 186.672 67.8115 186.672C66.8035 186.672 65.9235 186.16 65.1555 185.312L64.0515 186.48C64.9155 187.488 66.1795 188.176 67.7635 188.176ZM78.4932 188H80.2052V178.32H83.1972V176.8H75.4852V178.32H78.4932V188ZM87.447 188H89.175V183.312H90.871L92.727 188H94.567L92.551 183.008C93.767 182.576 94.551 181.568 94.551 180C94.551 177.776 93.143 176.8 91.239 176.8H87.447V188ZM89.175 181.888V178.256H91.143C92.311 178.256 92.871 178.848 92.871 180.048C92.871 181.296 92.295 181.888 91.063 181.888H89.175ZM99.8087 188H104.913V186.64H103.217V178.16H104.913V176.8H99.8087V178.16H101.505V186.64H99.8087V188ZM110.522 188H114.218C116.442 188 117.674 186.896 117.674 184.672C117.674 183.056 116.794 182.304 115.85 181.968C116.682 181.6 117.322 180.928 117.322 179.664C117.322 177.776 116.186 176.8 114.266 176.8H110.522V188ZM112.202 181.36V178.24H114.154C115.162 178.24 115.642 178.784 115.642 179.76C115.642 180.688 115.194 181.36 114.106 181.36H112.202ZM112.202 186.56V182.768H114.154C115.322 182.768 115.994 183.44 115.994 184.704C115.994 185.92 115.482 186.56 114.234 186.56H112.202ZM125.38 188.176C127.604 188.176 128.9 186.784 128.9 184.16V176.8H127.188V184.192C127.188 185.84 126.676 186.64 125.428 186.64C124.18 186.64 123.604 185.824 123.604 184.176V176.8H121.892V184.176C121.892 186.8 123.204 188.176 125.38 188.176ZM136.062 188H137.774V178.32H140.766V176.8H133.054V178.32H136.062V188ZM145.864 188H150.968V186.64H149.272V178.16H150.968V176.8H145.864V178.16H147.56V186.64H145.864V188ZM159.921 188.176C162.305 188.176 163.761 186.048 163.761 182.4C163.761 178.72 162.321 176.624 159.937 176.624C157.569 176.624 156.113 178.752 156.113 182.4C156.113 186.08 157.537 188.176 159.921 188.176ZM159.953 186.656C158.625 186.656 157.857 185.392 157.857 182.4C157.857 179.392 158.577 178.144 159.905 178.144C161.249 178.144 162.017 179.408 162.017 182.4C162.017 185.408 161.281 186.656 159.953 186.656ZM168.011 188H169.531V181.904C169.531 181.2 169.515 180.08 169.483 179.696C169.723 180.288 170.187 181.36 170.667 182.288L173.515 188H174.891V176.8H173.371V182.592C173.371 183.312 173.387 184.432 173.419 184.832C173.195 184.272 172.715 183.168 172.219 182.192L169.531 176.8H168.011V188ZM192.559 188H199.439V186.48H194.271V176.8H192.559V188ZM204.073 188H210.953V186.48H205.785V176.8H204.073V188ZM219.058 188.176C220.85 188.176 221.874 187.184 222.546 185.776L221.154 185.024C220.594 186.128 220.082 186.672 219.106 186.672C217.634 186.672 216.738 185.296 216.738 182.4C216.738 179.488 217.618 178.128 219.074 178.128C220.018 178.128 220.498 178.608 221.026 179.76L222.498 179.072C221.826 177.488 220.866 176.624 219.09 176.624C216.578 176.624 215.01 178.784 215.01 182.4C215.01 185.984 216.466 188.176 219.058 188.176Z" fill="#F8F8EC"/>
</g>
<defs>
<linearGradient id="paint0_linear_928_443" x1="46.9562" y1="43.0098" x2="46.9562" y2="228.61" gradientUnits="userSpaceOnUse">
<stop offset="0.556318" stop-color="#F8F8EC" stop-opacity="0"/>
<stop offset="1" stop-color="#F8F8EC" stop-opacity="0.6"/>
</linearGradient>
<linearGradient id="paint1_linear_928_443" x1="139.289" y1="25.1143" x2="139.289" y2="246.964" gradientUnits="userSpaceOnUse">
<stop stop-color="#F8F8EC" stop-opacity="0"/>
<stop offset="0.505208" stop-color="#F8F8EC"/>
</linearGradient>
<linearGradient id="paint2_linear_928_443" x1="139.287" y1="2.00804" x2="139.287" y2="270.072" gradientUnits="userSpaceOnUse">
<stop stop-color="#F8F8EC" stop-opacity="0"/>
<stop offset="1" stop-color="#F8F8EC"/>
</linearGradient>
<linearGradient id="paint3_linear_928_443" x1="139.288" y1="8.25336" x2="139.288" y2="263.827" gradientUnits="userSpaceOnUse">
<stop stop-color="#F8F8EC" stop-opacity="0"/>
<stop offset="0.46875" stop-color="#F8F8EC"/>
</linearGradient>
<clipPath id="clip0_928_443">
<rect width="275" height="258" fill="white"/>
</clipPath>
</defs>
</svg>
