<svg width="267" height="258" viewBox="0 0 267 258" fill="none" xmlns="http://www.w3.org/2000/svg">
<g clip-path="url(#clip0_1732_759)">
<g opacity="0.3">
<mask id="mask0_1732_759" style="mask-type:alpha" maskUnits="userSpaceOnUse" x="20" y="25" width="223" height="222">
<circle cx="131.291" cy="136.042" r="72.5" transform="rotate(-60.0121 131.291 136.042)" stroke="#F8F8EC" stroke-width="76.85" stroke-linecap="round"/>
</mask>
<g mask="url(#mask0_1732_759)">
<rect x="-28.4688" y="43.0098" width="134.85" height="185.6" transform="rotate(-60.0121 -28.4688 43.0098)" fill="url(#paint0_linear_1732_759)"/>
</g>
</g>
<g style="mix-blend-mode:screen" opacity="0.6">
<mask id="mask1_1732_759" style="mask-type:alpha" maskUnits="userSpaceOnUse" x="20" y="25" width="223" height="222">
<circle cx="131.289" cy="136.039" r="110.381" transform="rotate(104.855 131.289 136.039)" stroke="url(#paint1_linear_1732_759)" stroke-width="1.0875" stroke-linecap="round"/>
</mask>
<g mask="url(#mask1_1732_759)">
<rect x="309.136" y="184.523" width="133.762" height="184.513" transform="rotate(104.855 309.136 184.523)" fill="#F8F8EC" stroke="#F8F8EC" stroke-width="1.0875" stroke-linecap="round"/>
</g>
</g>
<g style="mix-blend-mode:screen" opacity="0.7">
<mask id="mask2_1732_759" style="mask-type:alpha" maskUnits="userSpaceOnUse" x="-3" y="2" width="269" height="269">
<circle cx="131.287" cy="136.04" r="132.582" transform="rotate(0.503265 131.287 136.04)" stroke="url(#paint2_linear_1732_759)" stroke-width="2.9" stroke-linecap="round"/>
</mask>
<g mask="url(#mask2_1732_759)">
<rect x="135.562" y="-85.8674" width="160.041" height="221.362" transform="rotate(0.503265 135.562 -85.8674)" fill="#F8F8EC" stroke="#F8F8EC" stroke-width="2.9" stroke-linecap="round"/>
</g>
</g>
<g opacity="0.3">
<mask id="mask3_1732_759" style="mask-type:alpha" maskUnits="userSpaceOnUse" x="3" y="8" width="257" height="256">
<circle cx="131.288" cy="136.04" r="121.987" transform="rotate(71.4549 131.288 136.04)" stroke="url(#paint3_linear_1732_759)" stroke-width="11.6" stroke-linecap="round"/>
</mask>
<g mask="url(#mask3_1732_759)">
<rect x="329.819" y="76.4373" width="143.749" height="202.213" transform="rotate(71.4549 329.819 76.4373)" fill="#F8F8EC" stroke="#F8F8EC" stroke-width="11.6" stroke-linecap="round"/>
</g>
</g>
<path d="M65.704 125.496H61.816V122.184H65.704V120.024C65.704 118.68 65.896 117.528 66.28 116.568C66.696 115.608 67.24 114.824 67.912 114.216C68.616 113.576 69.416 113.112 70.312 112.824C71.24 112.504 72.216 112.344 73.24 112.344C73.976 112.344 74.68 112.392 75.352 112.488C76.024 112.552 76.728 112.696 77.464 112.92L76.792 116.184C76.28 116.024 75.784 115.928 75.304 115.896C74.856 115.832 74.408 115.8 73.96 115.8C72.84 115.8 71.88 116.104 71.08 116.712C70.28 117.288 69.88 118.36 69.88 119.928V122.184H76.168V125.496H69.88V147H65.704V125.496ZM80.344 122.184H84.52V147H80.344V122.184ZM80.2 112.728H84.664V117.576H80.2V112.728ZM109.077 143.448C108.053 144.824 106.869 145.896 105.525 146.664C104.181 147.4 102.597 147.768 100.773 147.768C98.9485 147.768 97.3645 147.432 96.0205 146.76C94.7085 146.088 93.6205 145.176 92.7565 144.024C91.8925 142.84 91.2525 141.448 90.8365 139.848C90.4205 138.248 90.2125 136.536 90.2125 134.712C90.2125 132.664 90.4685 130.824 90.9805 129.192C91.4925 127.528 92.2125 126.12 93.1405 124.968C94.1005 123.816 95.2525 122.936 96.5965 122.328C97.9725 121.72 99.5245 121.416 101.253 121.416C102.565 121.416 103.893 121.688 105.237 122.232C106.581 122.744 107.829 123.736 108.981 125.208V112.728H113.156V147H109.077V143.448ZM109.125 133.848C109.125 131.864 108.901 130.328 108.453 129.24C108.037 128.12 107.333 127.176 106.341 126.408C105.637 125.832 104.917 125.432 104.181 125.208C103.477 124.984 102.693 124.872 101.829 124.872C100.805 124.872 99.8445 125.048 98.9485 125.4C98.0845 125.752 97.3165 126.328 96.6445 127.128C96.0045 127.896 95.4925 128.904 95.1085 130.152C94.7565 131.368 94.5805 132.856 94.5805 134.616C94.5805 136.44 94.7725 137.976 95.1565 139.224C95.5725 140.472 96.1005 141.464 96.7405 142.2C97.4125 142.936 98.1485 143.464 98.9485 143.784C99.7805 144.104 100.629 144.264 101.493 144.264C102.421 144.264 103.253 144.152 103.989 143.928C104.725 143.704 105.461 143.32 106.197 142.776C107.157 142.008 107.877 141.048 108.357 139.896C108.869 138.744 109.125 137.288 109.125 135.528V133.848ZM141.078 140.04C140.662 142.44 139.59 144.328 137.862 145.704C136.166 147.08 133.718 147.768 130.518 147.768C126.742 147.768 123.846 146.632 121.83 144.36C119.814 142.056 118.806 138.856 118.806 134.76C118.806 132.616 119.094 130.712 119.67 129.048C120.246 127.384 121.046 125.992 122.07 124.872C123.126 123.752 124.374 122.904 125.814 122.328C127.254 121.72 128.822 121.416 130.518 121.416C132.438 121.416 134.086 121.72 135.462 122.328C136.838 122.936 137.958 123.784 138.822 124.872C139.718 125.928 140.374 127.192 140.79 128.664C141.238 130.136 141.462 131.752 141.462 133.512V135.624H123.03C123.03 136.872 123.19 138.04 123.51 139.128C123.862 140.184 124.342 141.112 124.95 141.912C125.59 142.68 126.374 143.288 127.302 143.736C128.23 144.184 129.302 144.408 130.518 144.408C132.598 144.408 134.118 144.024 135.078 143.256C136.038 142.456 136.694 141.384 137.046 140.04H141.078ZM137.286 132.504C137.286 131.32 137.158 130.248 136.902 129.288C136.646 128.328 136.246 127.512 135.702 126.84C135.158 126.136 134.454 125.592 133.59 125.208C132.726 124.824 131.686 124.632 130.47 124.632C128.262 124.632 126.534 125.304 125.286 126.648C124.07 127.992 123.35 129.944 123.126 132.504H137.286ZM147.093 112.728H151.269V147H147.093V112.728ZM157.875 122.184H162.051V147H157.875V122.184ZM157.73 112.728H162.195V117.576H157.73V112.728ZM171.248 139.752C171.536 141.48 172.256 142.696 173.408 143.4C174.592 144.072 176.192 144.408 178.208 144.408C180.32 144.408 181.808 144.056 182.672 143.352C183.568 142.616 184.016 141.656 184.016 140.472C184.016 139.992 183.952 139.544 183.824 139.128C183.728 138.68 183.52 138.296 183.2 137.976C182.88 137.624 182.432 137.32 181.856 137.064C181.28 136.808 180.528 136.6 179.6 136.44L176.432 135.96C175.024 135.736 173.792 135.448 172.736 135.096C171.68 134.744 170.784 134.296 170.048 133.752C169.312 133.176 168.752 132.488 168.368 131.688C168.016 130.856 167.84 129.864 167.84 128.712C167.84 127.56 168.08 126.536 168.56 125.64C169.072 124.744 169.76 123.992 170.624 123.384C171.52 122.744 172.56 122.264 173.744 121.944C174.96 121.592 176.272 121.416 177.68 121.416C179.472 121.416 180.96 121.592 182.144 121.944C183.36 122.296 184.352 122.776 185.12 123.384C185.888 123.992 186.48 124.712 186.896 125.544C187.312 126.376 187.632 127.256 187.856 128.184L184.064 128.808C183.84 128.136 183.584 127.544 183.296 127.032C183.008 126.52 182.624 126.104 182.144 125.784C181.664 125.432 181.072 125.176 180.368 125.016C179.696 124.824 178.848 124.728 177.824 124.728C176.672 124.728 175.712 124.84 174.944 125.064C174.176 125.256 173.552 125.528 173.072 125.88C172.624 126.232 172.304 126.632 172.112 127.08C171.92 127.496 171.824 127.944 171.824 128.424C171.824 128.936 171.888 129.4 172.016 129.816C172.144 130.2 172.384 130.552 172.736 130.872C173.088 131.16 173.568 131.416 174.176 131.64C174.784 131.864 175.568 132.056 176.528 132.216L180.128 132.792C183.04 133.272 185.12 134.104 186.368 135.288C187.648 136.472 188.288 138.2 188.288 140.472C188.288 141.528 188.08 142.504 187.664 143.4C187.248 144.264 186.624 145.032 185.792 145.704C184.96 146.344 183.92 146.84 182.672 147.192C181.424 147.576 179.968 147.768 178.304 147.768C176.8 147.768 175.392 147.624 174.08 147.336C172.8 147.048 171.664 146.6 170.672 145.992C169.68 145.352 168.88 144.52 168.272 143.496C167.664 142.472 167.312 141.224 167.216 139.752H171.248Z" fill="#F8F8EC"/>
<path opacity="0.85" d="M80.392 173H83.032C85.864 173 87.608 171.32 87.608 167.32C87.608 163.56 85.976 161.8 83.24 161.8H80.392V173ZM82.12 171.528V163.288H83.16C85.016 163.288 85.88 164.504 85.88 167.368C85.88 170.488 84.904 171.528 83.16 171.528H82.12ZM92.7538 173H97.8578V171.64H96.1618V163.16H97.8578V161.8H92.7538V163.16H94.4498V171.64H92.7538V173ZM106.764 173.176C109.004 173.176 110.428 171.912 110.428 170.024C110.428 168.28 109.548 167.4 107.228 166.472C105.404 165.752 105.036 165.32 105.036 164.472C105.036 163.736 105.532 163.128 106.716 163.128C107.724 163.128 108.348 163.512 109.132 164.264L110.236 163.032C109.34 162.152 108.396 161.624 106.796 161.624C104.716 161.624 103.34 162.808 103.34 164.584C103.34 166.28 104.236 167.096 106.476 167.976C108.3 168.696 108.716 169.224 108.716 170.136C108.716 171.096 108.012 171.672 106.812 171.672C105.804 171.672 104.924 171.16 104.156 170.312L103.052 171.48C103.916 172.488 105.18 173.176 106.764 173.176ZM117.493 173H119.205V163.32H122.197V161.8H114.485V163.32H117.493V173ZM126.447 173H128.175V168.312H129.871L131.727 173H133.567L131.551 168.008C132.767 167.576 133.551 166.568 133.551 165C133.551 162.776 132.143 161.8 130.239 161.8H126.447V173ZM128.175 166.888V163.256H130.143C131.311 163.256 131.871 163.848 131.871 165.048C131.871 166.296 131.295 166.888 130.063 166.888H128.175ZM138.809 173H143.913V171.64H142.217V163.16H143.913V161.8H138.809V163.16H140.505V171.64H138.809V173ZM149.522 173H153.218C155.442 173 156.674 171.896 156.674 169.672C156.674 168.056 155.794 167.304 154.85 166.968C155.682 166.6 156.322 165.928 156.322 164.664C156.322 162.776 155.186 161.8 153.266 161.8H149.522V173ZM151.202 166.36V163.24H153.154C154.162 163.24 154.642 163.784 154.642 164.76C154.642 165.688 154.194 166.36 153.106 166.36H151.202ZM151.202 171.56V167.768H153.154C154.322 167.768 154.994 168.44 154.994 169.704C154.994 170.92 154.482 171.56 153.234 171.56H151.202ZM164.38 173.176C166.604 173.176 167.9 171.784 167.9 169.16V161.8H166.188V169.192C166.188 170.84 165.676 171.64 164.428 171.64C163.18 171.64 162.604 170.824 162.604 169.176V161.8H160.892V169.176C160.892 171.8 162.204 173.176 164.38 173.176ZM175.062 173H176.774V163.32H179.766V161.8H172.054V163.32H175.062V173ZM184.864 173H189.968V171.64H188.272V163.16H189.968V161.8H184.864V163.16H186.56V171.64H184.864V173ZM198.921 173.176C201.305 173.176 202.761 171.048 202.761 167.4C202.761 163.72 201.321 161.624 198.937 161.624C196.569 161.624 195.113 163.752 195.113 167.4C195.113 171.08 196.537 173.176 198.921 173.176ZM198.953 171.656C197.625 171.656 196.857 170.392 196.857 167.4C196.857 164.392 197.577 163.144 198.905 163.144C200.249 163.144 201.017 164.408 201.017 167.4C201.017 170.408 200.281 171.656 198.953 171.656ZM207.011 173H208.531V166.904C208.531 166.2 208.515 165.08 208.483 164.696C208.723 165.288 209.187 166.36 209.667 167.288L212.515 173H213.891V161.8H212.371V167.592C212.371 168.312 212.387 169.432 212.419 169.832C212.195 169.272 211.715 168.168 211.219 167.192L208.531 161.8H207.011V173ZM175.11 191H181.99V189.48H176.822V179.8H175.11V191ZM186.624 191H193.504V189.48H188.336V179.8H186.624V191ZM201.609 191.176C203.401 191.176 204.425 190.184 205.097 188.776L203.705 188.024C203.145 189.128 202.633 189.672 201.657 189.672C200.185 189.672 199.289 188.296 199.289 185.4C199.289 182.488 200.169 181.128 201.625 181.128C202.569 181.128 203.049 181.608 203.577 182.76L205.049 182.072C204.377 180.488 203.417 179.624 201.641 179.624C199.129 179.624 197.561 181.784 197.561 185.4C197.561 188.984 199.017 191.176 201.609 191.176Z" fill="#F8F8EC"/>
</g>
<defs>
<linearGradient id="paint0_linear_1732_759" x1="38.9562" y1="43.0098" x2="38.9562" y2="228.61" gradientUnits="userSpaceOnUse">
<stop offset="0.556318" stop-color="#F8F8EC" stop-opacity="0"/>
<stop offset="1" stop-color="#F8F8EC" stop-opacity="0.6"/>
</linearGradient>
<linearGradient id="paint1_linear_1732_759" x1="131.289" y1="25.1143" x2="131.289" y2="246.964" gradientUnits="userSpaceOnUse">
<stop stop-color="#F8F8EC" stop-opacity="0"/>
<stop offset="0.505208" stop-color="#F8F8EC"/>
</linearGradient>
<linearGradient id="paint2_linear_1732_759" x1="131.287" y1="2.00804" x2="131.287" y2="270.072" gradientUnits="userSpaceOnUse">
<stop stop-color="#F8F8EC" stop-opacity="0"/>
<stop offset="1" stop-color="#F8F8EC"/>
</linearGradient>
<linearGradient id="paint3_linear_1732_759" x1="131.288" y1="8.25336" x2="131.288" y2="263.827" gradientUnits="userSpaceOnUse">
<stop stop-color="#F8F8EC" stop-opacity="0"/>
<stop offset="0.46875" stop-color="#F8F8EC"/>
</linearGradient>
<clipPath id="clip0_1732_759">
<rect width="275" height="258" fill="white" transform="translate(-8)"/>
</clipPath>
</defs>
</svg>
