<svg width="275" height="258" viewBox="0 0 275 258" fill="none" xmlns="http://www.w3.org/2000/svg">
<g clip-path="url(#clip0_1723_678)">
<g opacity="0.3">
<mask id="mask0_1723_678" style="mask-type:alpha" maskUnits="userSpaceOnUse" x="28" y="25" width="223" height="222">
<circle cx="139.291" cy="136.042" r="72.5" transform="rotate(-60.0121 139.291 136.042)" stroke="#F8F8EC" stroke-width="76.85" stroke-linecap="round"/>
</mask>
<g mask="url(#mask0_1723_678)">
<rect x="-20.4688" y="43.0098" width="134.85" height="185.6" transform="rotate(-60.0121 -20.4688 43.0098)" fill="url(#paint0_linear_1723_678)"/>
</g>
</g>
<g style="mix-blend-mode:screen" opacity="0.6">
<mask id="mask1_1723_678" style="mask-type:alpha" maskUnits="userSpaceOnUse" x="28" y="25" width="223" height="222">
<circle cx="139.289" cy="136.039" r="110.381" transform="rotate(104.855 139.289 136.039)" stroke="url(#paint1_linear_1723_678)" stroke-width="1.0875" stroke-linecap="round"/>
</mask>
<g mask="url(#mask1_1723_678)">
<rect x="317.132" y="184.523" width="133.762" height="184.513" transform="rotate(104.855 317.132 184.523)" fill="#404B48" stroke="#404B48" stroke-width="1.0875" stroke-linecap="round"/>
</g>
</g>
<g style="mix-blend-mode:screen" opacity="0.7">
<mask id="mask2_1723_678" style="mask-type:alpha" maskUnits="userSpaceOnUse" x="5" y="2" width="269" height="269">
<circle cx="139.287" cy="136.04" r="132.582" transform="rotate(0.503265 139.287 136.04)" stroke="url(#paint2_linear_1723_678)" stroke-width="2.9" stroke-linecap="round"/>
</mask>
<g mask="url(#mask2_1723_678)">
<rect x="143.562" y="-85.8674" width="160.041" height="221.362" transform="rotate(0.503265 143.562 -85.8674)" fill="#404B48" stroke="#404B48" stroke-width="2.9" stroke-linecap="round"/>
</g>
</g>
<g opacity="0.3">
<mask id="mask3_1723_678" style="mask-type:alpha" maskUnits="userSpaceOnUse" x="11" y="8" width="257" height="256">
<circle cx="139.288" cy="136.04" r="121.987" transform="rotate(71.4549 139.288 136.04)" stroke="url(#paint3_linear_1723_678)" stroke-width="11.6" stroke-linecap="round"/>
</mask>
<g mask="url(#mask3_1723_678)">
<rect x="337.822" y="76.4373" width="143.749" height="202.213" transform="rotate(71.4549 337.822 76.4373)" fill="#404B48" stroke="#404B48" stroke-width="11.6" stroke-linecap="round"/>
</g>
</g>
<path d="M72.704 126.496H68.816V123.184H72.704V121.024C72.704 119.68 72.896 118.528 73.28 117.568C73.696 116.608 74.24 115.824 74.912 115.216C75.616 114.576 76.416 114.112 77.312 113.824C78.24 113.504 79.216 113.344 80.24 113.344C80.976 113.344 81.68 113.392 82.352 113.488C83.024 113.552 83.728 113.696 84.464 113.92L83.792 117.184C83.28 117.024 82.784 116.928 82.304 116.896C81.856 116.832 81.408 116.8 80.96 116.8C79.84 116.8 78.88 117.104 78.08 117.712C77.28 118.288 76.88 119.36 76.88 120.928V123.184H83.168V126.496H76.88V148H72.704V126.496ZM87.344 123.184H91.52V148H87.344V123.184ZM87.2 113.728H91.664V118.576H87.2V113.728ZM116.077 144.448C115.053 145.824 113.869 146.896 112.525 147.664C111.181 148.4 109.597 148.768 107.773 148.768C105.949 148.768 104.365 148.432 103.021 147.76C101.709 147.088 100.621 146.176 99.7565 145.024C98.8925 143.84 98.2525 142.448 97.8365 140.848C97.4205 139.248 97.2125 137.536 97.2125 135.712C97.2125 133.664 97.4685 131.824 97.9805 130.192C98.4925 128.528 99.2125 127.12 100.141 125.968C101.101 124.816 102.253 123.936 103.597 123.328C104.973 122.72 106.525 122.416 108.253 122.416C109.565 122.416 110.893 122.688 112.237 123.232C113.581 123.744 114.829 124.736 115.981 126.208V113.728H120.156V148H116.077V144.448ZM116.125 134.848C116.125 132.864 115.901 131.328 115.453 130.24C115.037 129.12 114.333 128.176 113.341 127.408C112.637 126.832 111.917 126.432 111.181 126.208C110.477 125.984 109.693 125.872 108.829 125.872C107.805 125.872 106.845 126.048 105.949 126.4C105.085 126.752 104.317 127.328 103.645 128.128C103.005 128.896 102.493 129.904 102.109 131.152C101.757 132.368 101.581 133.856 101.581 135.616C101.581 137.44 101.773 138.976 102.157 140.224C102.573 141.472 103.101 142.464 103.741 143.2C104.413 143.936 105.149 144.464 105.949 144.784C106.781 145.104 107.629 145.264 108.493 145.264C109.421 145.264 110.253 145.152 110.989 144.928C111.725 144.704 112.461 144.32 113.197 143.776C114.157 143.008 114.877 142.048 115.357 140.896C115.869 139.744 116.125 138.288 116.125 136.528V134.848ZM148.078 141.04C147.662 143.44 146.59 145.328 144.862 146.704C143.166 148.08 140.718 148.768 137.518 148.768C133.742 148.768 130.846 147.632 128.83 145.36C126.814 143.056 125.806 139.856 125.806 135.76C125.806 133.616 126.094 131.712 126.67 130.048C127.246 128.384 128.046 126.992 129.07 125.872C130.126 124.752 131.374 123.904 132.814 123.328C134.254 122.72 135.822 122.416 137.518 122.416C139.438 122.416 141.086 122.72 142.462 123.328C143.838 123.936 144.958 124.784 145.822 125.872C146.718 126.928 147.374 128.192 147.79 129.664C148.238 131.136 148.462 132.752 148.462 134.512V136.624H130.03C130.03 137.872 130.19 139.04 130.51 140.128C130.862 141.184 131.342 142.112 131.95 142.912C132.59 143.68 133.374 144.288 134.302 144.736C135.23 145.184 136.302 145.408 137.518 145.408C139.598 145.408 141.118 145.024 142.078 144.256C143.038 143.456 143.694 142.384 144.046 141.04H148.078ZM144.286 133.504C144.286 132.32 144.158 131.248 143.902 130.288C143.646 129.328 143.246 128.512 142.702 127.84C142.158 127.136 141.454 126.592 140.59 126.208C139.726 125.824 138.686 125.632 137.47 125.632C135.262 125.632 133.534 126.304 132.286 127.648C131.07 128.992 130.35 130.944 130.126 133.504H144.286ZM154.093 113.728H158.269V148H154.093V113.728ZM164.875 123.184H169.051V148H164.875V123.184ZM164.73 113.728H169.195V118.576H164.73V113.728ZM178.248 140.752C178.536 142.48 179.256 143.696 180.408 144.4C181.592 145.072 183.192 145.408 185.208 145.408C187.32 145.408 188.808 145.056 189.672 144.352C190.568 143.616 191.016 142.656 191.016 141.472C191.016 140.992 190.952 140.544 190.824 140.128C190.728 139.68 190.52 139.296 190.2 138.976C189.88 138.624 189.432 138.32 188.856 138.064C188.28 137.808 187.528 137.6 186.6 137.44L183.432 136.96C182.024 136.736 180.792 136.448 179.736 136.096C178.68 135.744 177.784 135.296 177.048 134.752C176.312 134.176 175.752 133.488 175.368 132.688C175.016 131.856 174.84 130.864 174.84 129.712C174.84 128.56 175.08 127.536 175.56 126.64C176.072 125.744 176.76 124.992 177.624 124.384C178.52 123.744 179.56 123.264 180.744 122.944C181.96 122.592 183.272 122.416 184.68 122.416C186.472 122.416 187.96 122.592 189.144 122.944C190.36 123.296 191.352 123.776 192.12 124.384C192.888 124.992 193.48 125.712 193.896 126.544C194.312 127.376 194.632 128.256 194.856 129.184L191.064 129.808C190.84 129.136 190.584 128.544 190.296 128.032C190.008 127.52 189.624 127.104 189.144 126.784C188.664 126.432 188.072 126.176 187.368 126.016C186.696 125.824 185.848 125.728 184.824 125.728C183.672 125.728 182.712 125.84 181.944 126.064C181.176 126.256 180.552 126.528 180.072 126.88C179.624 127.232 179.304 127.632 179.112 128.08C178.92 128.496 178.824 128.944 178.824 129.424C178.824 129.936 178.888 130.4 179.016 130.816C179.144 131.2 179.384 131.552 179.736 131.872C180.088 132.16 180.568 132.416 181.176 132.64C181.784 132.864 182.568 133.056 183.528 133.216L187.128 133.792C190.04 134.272 192.12 135.104 193.368 136.288C194.648 137.472 195.288 139.2 195.288 141.472C195.288 142.528 195.08 143.504 194.664 144.4C194.248 145.264 193.624 146.032 192.792 146.704C191.96 147.344 190.92 147.84 189.672 148.192C188.424 148.576 186.968 148.768 185.304 148.768C183.8 148.768 182.392 148.624 181.08 148.336C179.8 148.048 178.664 147.6 177.672 146.992C176.68 146.352 175.88 145.52 175.272 144.496C174.664 143.472 174.312 142.224 174.216 140.752H178.248Z" fill="#404B48"/>
<path d="M72.392 174H75.032C77.864 174 79.608 172.32 79.608 168.32C79.608 164.56 77.976 162.8 75.24 162.8H72.392V174ZM74.12 172.528V164.288H75.16C77.016 164.288 77.88 165.504 77.88 168.368C77.88 171.488 76.904 172.528 75.16 172.528H74.12ZM84.7538 174H89.8578V172.64H88.1618V164.16H89.8578V162.8H84.7538V164.16H86.4498V172.64H84.7538V174ZM98.7635 174.176C101.004 174.176 102.428 172.912 102.428 171.024C102.428 169.28 101.548 168.4 99.2275 167.472C97.4035 166.752 97.0355 166.32 97.0355 165.472C97.0355 164.736 97.5315 164.128 98.7155 164.128C99.7235 164.128 100.348 164.512 101.132 165.264L102.236 164.032C101.34 163.152 100.396 162.624 98.7955 162.624C96.7155 162.624 95.3395 163.808 95.3395 165.584C95.3395 167.28 96.2355 168.096 98.4755 168.976C100.3 169.696 100.716 170.224 100.716 171.136C100.716 172.096 100.012 172.672 98.8115 172.672C97.8035 172.672 96.9235 172.16 96.1555 171.312L95.0515 172.48C95.9155 173.488 97.1795 174.176 98.7635 174.176ZM109.493 174H111.205V164.32H114.197V162.8H106.485V164.32H109.493V174ZM118.447 174H120.175V169.312H121.871L123.727 174H125.567L123.551 169.008C124.767 168.576 125.551 167.568 125.551 166C125.551 163.776 124.143 162.8 122.239 162.8H118.447V174ZM120.175 167.888V164.256H122.143C123.311 164.256 123.871 164.848 123.871 166.048C123.871 167.296 123.295 167.888 122.063 167.888H120.175ZM130.809 174H135.913V172.64H134.217V164.16H135.913V162.8H130.809V164.16H132.505V172.64H130.809V174ZM141.522 174H145.218C147.442 174 148.674 172.896 148.674 170.672C148.674 169.056 147.794 168.304 146.85 167.968C147.682 167.6 148.322 166.928 148.322 165.664C148.322 163.776 147.186 162.8 145.266 162.8H141.522V174ZM143.202 167.36V164.24H145.154C146.162 164.24 146.642 164.784 146.642 165.76C146.642 166.688 146.194 167.36 145.106 167.36H143.202ZM143.202 172.56V168.768H145.154C146.322 168.768 146.994 169.44 146.994 170.704C146.994 171.92 146.482 172.56 145.234 172.56H143.202ZM156.38 174.176C158.604 174.176 159.9 172.784 159.9 170.16V162.8H158.188V170.192C158.188 171.84 157.676 172.64 156.428 172.64C155.18 172.64 154.604 171.824 154.604 170.176V162.8H152.892V170.176C152.892 172.8 154.204 174.176 156.38 174.176ZM167.062 174H168.774V164.32H171.766V162.8H164.054V164.32H167.062V174ZM176.864 174H181.968V172.64H180.272V164.16H181.968V162.8H176.864V164.16H178.56V172.64H176.864V174ZM190.921 174.176C193.305 174.176 194.761 172.048 194.761 168.4C194.761 164.72 193.321 162.624 190.937 162.624C188.569 162.624 187.113 164.752 187.113 168.4C187.113 172.08 188.537 174.176 190.921 174.176ZM190.953 172.656C189.625 172.656 188.857 171.392 188.857 168.4C188.857 165.392 189.577 164.144 190.905 164.144C192.249 164.144 193.017 165.408 193.017 168.4C193.017 171.408 192.281 172.656 190.953 172.656ZM199.011 174H200.531V167.904C200.531 167.2 200.515 166.08 200.483 165.696C200.723 166.288 201.187 167.36 201.667 168.288L204.515 174H205.891V162.8H204.371V168.592C204.371 169.312 204.387 170.432 204.419 170.832C204.195 170.272 203.715 169.168 203.219 168.192L200.531 162.8H199.011V174ZM72.6 192H79.48V190.48H74.312V180.8H72.6V192ZM84.1138 192H90.9938V190.48H85.8258V180.8H84.1138V192ZM99.0995 192.176C100.892 192.176 101.916 191.184 102.588 189.776L101.196 189.024C100.636 190.128 100.124 190.672 99.1475 190.672C97.6755 190.672 96.7795 189.296 96.7795 186.4C96.7795 183.488 97.6595 182.128 99.1155 182.128C100.06 182.128 100.54 182.608 101.068 183.76L102.54 183.072C101.868 181.488 100.908 180.624 99.1315 180.624C96.6195 180.624 95.0515 182.784 95.0515 186.4C95.0515 189.984 96.5075 192.176 99.0995 192.176Z" fill="#404B48"/>
</g>
<defs>
<linearGradient id="paint0_linear_1723_678" x1="46.9562" y1="43.0098" x2="46.9562" y2="228.61" gradientUnits="userSpaceOnUse">
<stop offset="0.556318" stop-color="#404B48" stop-opacity="0"/>
<stop offset="1" stop-color="#404B48" stop-opacity="0.6"/>
</linearGradient>
<linearGradient id="paint1_linear_1723_678" x1="139.289" y1="25.1143" x2="139.289" y2="246.964" gradientUnits="userSpaceOnUse">
<stop stop-color="#F8F8EC" stop-opacity="0"/>
<stop offset="0.505208" stop-color="#F8F8EC"/>
</linearGradient>
<linearGradient id="paint2_linear_1723_678" x1="139.287" y1="2.00804" x2="139.287" y2="270.072" gradientUnits="userSpaceOnUse">
<stop stop-color="#F8F8EC" stop-opacity="0"/>
<stop offset="1" stop-color="#F8F8EC"/>
</linearGradient>
<linearGradient id="paint3_linear_1723_678" x1="139.288" y1="8.25336" x2="139.288" y2="263.827" gradientUnits="userSpaceOnUse">
<stop stop-color="#F8F8EC" stop-opacity="0"/>
<stop offset="0.46875" stop-color="#F8F8EC"/>
</linearGradient>
<clipPath id="clip0_1723_678">
<rect width="275" height="258" fill="white"/>
</clipPath>
</defs>
</svg>
