<svg width="275" height="258" viewBox="0 0 275 258" fill="none" xmlns="http://www.w3.org/2000/svg">
<g clip-path="url(#clip0_1732_759)">
<g opacity="0.3">
<mask id="mask0_1732_759" style="mask-type:alpha" maskUnits="userSpaceOnUse" x="28" y="25" width="223" height="222">
<circle cx="139.291" cy="136.042" r="72.5" transform="rotate(-60.0121 139.291 136.042)" stroke="#F8F8EC" stroke-width="76.85" stroke-linecap="round"/>
</mask>
<g mask="url(#mask0_1732_759)">
<rect x="-20.4688" y="43.0098" width="134.85" height="185.6" transform="rotate(-60.0121 -20.4688 43.0098)" fill="url(#paint0_linear_1732_759)"/>
</g>
</g>
<g style="mix-blend-mode:screen" opacity="0.6">
<mask id="mask1_1732_759" style="mask-type:alpha" maskUnits="userSpaceOnUse" x="28" y="25" width="223" height="222">
<circle cx="139.289" cy="136.039" r="110.381" transform="rotate(104.855 139.289 136.039)" stroke="url(#paint1_linear_1732_759)" stroke-width="1.0875" stroke-linecap="round"/>
</mask>
<g mask="url(#mask1_1732_759)">
<rect x="317.136" y="184.523" width="133.762" height="184.513" transform="rotate(104.855 317.136 184.523)" fill="#DDDACE" stroke="#DDDACE" stroke-width="1.0875" stroke-linecap="round"/>
</g>
</g>
<g style="mix-blend-mode:screen" opacity="0.7">
<mask id="mask2_1732_759" style="mask-type:alpha" maskUnits="userSpaceOnUse" x="5" y="2" width="269" height="269">
<circle cx="139.287" cy="136.04" r="132.582" transform="rotate(0.503265 139.287 136.04)" stroke="url(#paint2_linear_1732_759)" stroke-width="2.9" stroke-linecap="round"/>
</mask>
<g mask="url(#mask2_1732_759)">
<rect x="143.562" y="-85.8674" width="160.041" height="221.362" transform="rotate(0.503265 143.562 -85.8674)" fill="#DDDACE" stroke="#DDDACE" stroke-width="2.9" stroke-linecap="round"/>
</g>
</g>
<g opacity="0.3">
<mask id="mask3_1732_759" style="mask-type:alpha" maskUnits="userSpaceOnUse" x="11" y="8" width="257" height="256">
<circle cx="139.288" cy="136.04" r="121.987" transform="rotate(71.4549 139.288 136.04)" stroke="url(#paint3_linear_1732_759)" stroke-width="11.6" stroke-linecap="round"/>
</mask>
<g mask="url(#mask3_1732_759)">
<rect x="337.819" y="76.4373" width="143.749" height="202.213" transform="rotate(71.4549 337.819 76.4373)" fill="#DDDACE" stroke="#DDDACE" stroke-width="11.6" stroke-linecap="round"/>
</g>
</g>
<path d="M42.3908 124.328H37.2068V119.912H42.3908V117.032C42.3908 115.24 42.6468 113.704 43.1588 112.424C43.7134 111.144 44.4388 110.099 45.3348 109.288C46.2734 108.435 47.3401 107.816 48.5348 107.432C49.7721 107.005 51.0734 106.792 52.4388 106.792C53.4201 106.792 54.3588 106.856 55.2548 106.984C56.1508 107.069 57.0894 107.261 58.0708 107.56L57.1748 111.912C56.4921 111.699 55.8308 111.571 55.1908 111.528C54.5934 111.443 53.9961 111.4 53.3988 111.4C51.9054 111.4 50.6254 111.805 49.5588 112.616C48.4921 113.384 47.9588 114.813 47.9588 116.904V119.912H56.3428V124.328H47.9588V153H42.3908V124.328ZM65.1098 119.912H70.6778V153H65.1098V119.912ZM64.9178 107.304H70.8698V113.768H64.9178V107.304ZM106.621 148.264C105.255 150.099 103.677 151.528 101.885 152.552C100.093 153.533 97.9808 154.024 95.5488 154.024C93.1168 154.024 91.0048 153.576 89.2128 152.68C87.4634 151.784 86.0128 150.568 84.8608 149.032C83.7088 147.453 82.8554 145.597 82.3008 143.464C81.7461 141.331 81.4688 139.048 81.4688 136.616C81.4688 133.885 81.8101 131.432 82.4928 129.256C83.1754 127.037 84.1354 125.16 85.3728 123.624C86.6528 122.088 88.1888 120.915 89.9808 120.104C91.8154 119.293 93.8848 118.888 96.1888 118.888C97.9381 118.888 99.7088 119.251 101.501 119.976C103.293 120.659 104.957 121.981 106.493 123.944V107.304H112.061V153H106.621V148.264ZM106.685 135.464C106.685 132.819 106.386 130.771 105.789 129.32C105.234 127.827 104.295 126.568 102.973 125.544C102.034 124.776 101.074 124.243 100.093 123.944C99.1541 123.645 98.1088 123.496 96.9568 123.496C95.5914 123.496 94.3114 123.731 93.1168 124.2C91.9648 124.669 90.9408 125.437 90.0448 126.504C89.1914 127.528 88.5088 128.872 87.9968 130.536C87.5274 132.157 87.2928 134.141 87.2928 136.488C87.2928 138.92 87.5488 140.968 88.0608 142.632C88.6154 144.296 89.3194 145.619 90.1728 146.6C91.0688 147.581 92.0501 148.285 93.1168 148.712C94.2261 149.139 95.3568 149.352 96.5088 149.352C97.7461 149.352 98.8554 149.203 99.8368 148.904C100.818 148.605 101.799 148.093 102.781 147.368C104.061 146.344 105.021 145.064 105.661 143.528C106.343 141.992 106.685 140.051 106.685 137.704V135.464ZM152.49 143.72C151.935 146.92 150.506 149.437 148.202 151.272C145.94 153.107 142.676 154.024 138.41 154.024C133.375 154.024 129.514 152.509 126.826 149.48C124.138 146.408 122.794 142.141 122.794 136.68C122.794 133.821 123.178 131.283 123.946 129.064C124.714 126.845 125.78 124.989 127.146 123.496C128.554 122.003 130.218 120.872 132.138 120.104C134.058 119.293 136.148 118.888 138.41 118.888C140.97 118.888 143.167 119.293 145.002 120.104C146.836 120.915 148.33 122.045 149.482 123.496C150.676 124.904 151.551 126.589 152.106 128.552C152.703 130.515 153.002 132.669 153.002 135.016V137.832H128.426C128.426 139.496 128.639 141.053 129.066 142.504C129.535 143.912 130.175 145.149 130.986 146.216C131.839 147.24 132.884 148.051 134.122 148.648C135.359 149.245 136.788 149.544 138.41 149.544C141.183 149.544 143.21 149.032 144.49 148.008C145.77 146.941 146.644 145.512 147.114 143.72H152.49ZM147.434 133.672C147.434 132.093 147.263 130.664 146.922 129.384C146.58 128.104 146.047 127.016 145.322 126.12C144.596 125.181 143.658 124.456 142.506 123.944C141.354 123.432 139.967 123.176 138.346 123.176C135.402 123.176 133.098 124.072 131.434 125.864C129.812 127.656 128.852 130.259 128.554 133.672H147.434ZM163.71 107.304H169.278V153H163.71V107.304ZM181.285 119.912H186.853V153H181.285V119.912ZM181.093 107.304H187.045V113.768H181.093V107.304ZM202.316 143.336C202.7 145.64 203.66 147.261 205.196 148.2C206.774 149.096 208.908 149.544 211.596 149.544C214.412 149.544 216.396 149.075 217.548 148.136C218.742 147.155 219.34 145.875 219.34 144.296C219.34 143.656 219.254 143.059 219.084 142.504C218.956 141.907 218.678 141.395 218.252 140.968C217.825 140.499 217.228 140.093 216.46 139.752C215.692 139.411 214.689 139.133 213.452 138.92L209.228 138.28C207.35 137.981 205.708 137.597 204.3 137.128C202.892 136.659 201.697 136.061 200.716 135.336C199.734 134.568 198.988 133.651 198.476 132.584C198.006 131.475 197.772 130.152 197.772 128.616C197.772 127.08 198.092 125.715 198.732 124.52C199.414 123.325 200.332 122.323 201.484 121.512C202.678 120.659 204.065 120.019 205.644 119.592C207.265 119.123 209.014 118.888 210.892 118.888C213.281 118.888 215.265 119.123 216.844 119.592C218.465 120.061 219.788 120.701 220.812 121.512C221.836 122.323 222.625 123.283 223.18 124.392C223.734 125.501 224.161 126.675 224.46 127.912L219.404 128.744C219.105 127.848 218.764 127.059 218.38 126.376C217.996 125.693 217.484 125.139 216.844 124.712C216.204 124.243 215.414 123.901 214.476 123.688C213.58 123.432 212.449 123.304 211.084 123.304C209.548 123.304 208.268 123.453 207.244 123.752C206.22 124.008 205.388 124.371 204.748 124.84C204.15 125.309 203.724 125.843 203.468 126.44C203.212 126.995 203.084 127.592 203.084 128.232C203.084 128.915 203.169 129.533 203.34 130.088C203.51 130.6 203.83 131.069 204.3 131.496C204.769 131.88 205.409 132.221 206.22 132.52C207.03 132.819 208.076 133.075 209.356 133.288L214.156 134.056C218.038 134.696 220.812 135.805 222.476 137.384C224.182 138.963 225.036 141.267 225.036 144.296C225.036 145.704 224.758 147.005 224.204 148.2C223.649 149.352 222.817 150.376 221.708 151.272C220.598 152.125 219.212 152.787 217.548 153.256C215.884 153.768 213.942 154.024 211.724 154.024C209.718 154.024 207.841 153.832 206.092 153.448C204.385 153.064 202.87 152.467 201.548 151.656C200.225 150.803 199.158 149.693 198.348 148.328C197.537 146.963 197.068 145.299 196.94 143.336H202.316Z" fill="#DDDACE"/>
<path opacity="0.85" d="M83.392 180H86.032C88.864 180 90.608 178.32 90.608 174.32C90.608 170.56 88.976 168.8 86.24 168.8H83.392V180ZM85.12 178.528V170.288H86.16C88.016 170.288 88.88 171.504 88.88 174.368C88.88 177.488 87.904 178.528 86.16 178.528H85.12ZM95.7538 180H100.858V178.64H99.1618V170.16H100.858V168.8H95.7538V170.16H97.4498V178.64H95.7538V180ZM109.764 180.176C112.004 180.176 113.428 178.912 113.428 177.024C113.428 175.28 112.548 174.4 110.228 173.472C108.404 172.752 108.036 172.32 108.036 171.472C108.036 170.736 108.532 170.128 109.716 170.128C110.724 170.128 111.348 170.512 112.132 171.264L113.236 170.032C112.34 169.152 111.396 168.624 109.796 168.624C107.716 168.624 106.34 169.808 106.34 171.584C106.34 173.28 107.236 174.096 109.476 174.976C111.3 175.696 111.716 176.224 111.716 177.136C111.716 178.096 111.012 178.672 109.812 178.672C108.804 178.672 107.924 178.16 107.156 177.312L106.052 178.48C106.916 179.488 108.18 180.176 109.764 180.176ZM120.493 180H122.205V170.32H125.197V168.8H117.485V170.32H120.493V180ZM129.447 180H131.175V175.312H132.871L134.727 180H136.567L134.551 175.008C135.767 174.576 136.551 173.568 136.551 172C136.551 169.776 135.143 168.8 133.239 168.8H129.447V180ZM131.175 173.888V170.256H133.143C134.311 170.256 134.871 170.848 134.871 172.048C134.871 173.296 134.295 173.888 133.063 173.888H131.175ZM141.809 180H146.913V178.64H145.217V170.16H146.913V168.8H141.809V170.16H143.505V178.64H141.809V180ZM152.522 180H156.218C158.442 180 159.674 178.896 159.674 176.672C159.674 175.056 158.794 174.304 157.85 173.968C158.682 173.6 159.322 172.928 159.322 171.664C159.322 169.776 158.186 168.8 156.266 168.8H152.522V180ZM154.202 173.36V170.24H156.154C157.162 170.24 157.642 170.784 157.642 171.76C157.642 172.688 157.194 173.36 156.106 173.36H154.202ZM154.202 178.56V174.768H156.154C157.322 174.768 157.994 175.44 157.994 176.704C157.994 177.92 157.482 178.56 156.234 178.56H154.202ZM167.38 180.176C169.604 180.176 170.9 178.784 170.9 176.16V168.8H169.188V176.192C169.188 177.84 168.676 178.64 167.428 178.64C166.18 178.64 165.604 177.824 165.604 176.176V168.8H163.892V176.176C163.892 178.8 165.204 180.176 167.38 180.176ZM178.062 180H179.774V170.32H182.766V168.8H175.054V170.32H178.062V180ZM187.864 180H192.968V178.64H191.272V170.16H192.968V168.8H187.864V170.16H189.56V178.64H187.864V180ZM201.921 180.176C204.305 180.176 205.761 178.048 205.761 174.4C205.761 170.72 204.321 168.624 201.937 168.624C199.569 168.624 198.113 170.752 198.113 174.4C198.113 178.08 199.537 180.176 201.921 180.176ZM201.953 178.656C200.625 178.656 199.857 177.392 199.857 174.4C199.857 171.392 200.577 170.144 201.905 170.144C203.249 170.144 204.017 171.408 204.017 174.4C204.017 177.408 203.281 178.656 201.953 178.656ZM210.011 180H211.531V173.904C211.531 173.2 211.515 172.08 211.483 171.696C211.723 172.288 212.187 173.36 212.667 174.288L215.515 180H216.891V168.8H215.371V174.592C215.371 175.312 215.387 176.432 215.419 176.832C215.195 176.272 214.715 175.168 214.219 174.192L211.531 168.8H210.011V180ZM178.11 198H184.99V196.48H179.822V186.8H178.11V198ZM189.624 198H196.504V196.48H191.336V186.8H189.624V198ZM204.609 198.176C206.401 198.176 207.425 197.184 208.097 195.776L206.705 195.024C206.145 196.128 205.633 196.672 204.657 196.672C203.185 196.672 202.289 195.296 202.289 192.4C202.289 189.488 203.169 188.128 204.625 188.128C205.569 188.128 206.049 188.608 206.577 189.76L208.049 189.072C207.377 187.488 206.417 186.624 204.641 186.624C202.129 186.624 200.561 188.784 200.561 192.4C200.561 195.984 202.017 198.176 204.609 198.176Z" fill="#DDDACE"/>
</g>
<defs>
<linearGradient id="paint0_linear_1732_759" x1="46.9562" y1="43.0098" x2="46.9562" y2="228.61" gradientUnits="userSpaceOnUse">
<stop offset="0.556318" stop-color="#DDDACE" stop-opacity="0"/>
<stop offset="1" stop-color="#DDDACE" stop-opacity="0.6"/>
</linearGradient>
<linearGradient id="paint1_linear_1732_759" x1="139.289" y1="25.1143" x2="139.289" y2="246.964" gradientUnits="userSpaceOnUse">
<stop stop-color="#F8F8EC" stop-opacity="0"/>
<stop offset="0.505208" stop-color="#F8F8EC"/>
</linearGradient>
<linearGradient id="paint2_linear_1732_759" x1="139.287" y1="2.00804" x2="139.287" y2="270.072" gradientUnits="userSpaceOnUse">
<stop stop-color="#F8F8EC" stop-opacity="0"/>
<stop offset="1" stop-color="#F8F8EC"/>
</linearGradient>
<linearGradient id="paint3_linear_1732_759" x1="139.288" y1="8.25336" x2="139.288" y2="263.827" gradientUnits="userSpaceOnUse">
<stop stop-color="#F8F8EC" stop-opacity="0"/>
<stop offset="0.46875" stop-color="#F8F8EC"/>
</linearGradient>
<clipPath id="clip0_1732_759">
<rect width="275" height="258" fill="white"/>
</clipPath>
</defs>
</svg>
