<svg width="275" height="258" viewBox="0 0 275 258" fill="none" xmlns="http://www.w3.org/2000/svg">
<g clip-path="url(#clip0_1930_689)">
<g opacity="0.3">
<mask id="mask0_1930_689" style="mask-type:alpha" maskUnits="userSpaceOnUse" x="28" y="25" width="223" height="222">
<circle cx="139.291" cy="136.042" r="72.5" transform="rotate(-60.0121 139.291 136.042)" stroke="#F8F8EC" stroke-width="76.85" stroke-linecap="round"/>
</mask>
<g mask="url(#mask0_1930_689)">
<rect x="-20.4688" y="43.0098" width="134.85" height="185.6" transform="rotate(-60.0121 -20.4688 43.0098)" fill="url(#paint0_linear_1930_689)"/>
</g>
</g>
<g opacity="0.6">
<mask id="mask1_1930_689" style="mask-type:alpha" maskUnits="userSpaceOnUse" x="28" y="25" width="223" height="222">
<circle cx="139.289" cy="136.039" r="110.381" transform="rotate(104.855 139.289 136.039)" stroke="url(#paint1_linear_1930_689)" stroke-width="1.0875" stroke-linecap="round"/>
</mask>
<g mask="url(#mask1_1930_689)">
<rect x="317.136" y="184.523" width="133.762" height="184.513" transform="rotate(104.855 317.136 184.523)" fill="#F91B43" stroke="#F91B43" stroke-width="1.0875" stroke-linecap="round"/>
</g>
</g>
<g opacity="0.7">
<mask id="mask2_1930_689" style="mask-type:alpha" maskUnits="userSpaceOnUse" x="5" y="2" width="269" height="269">
<circle cx="139.287" cy="136.04" r="132.582" transform="rotate(0.503265 139.287 136.04)" stroke="url(#paint2_linear_1930_689)" stroke-width="2.9" stroke-linecap="round"/>
</mask>
<g mask="url(#mask2_1930_689)">
<rect x="143.562" y="-85.8674" width="160.041" height="221.362" transform="rotate(0.503265 143.562 -85.8674)" fill="#F91B43" stroke="#F91B43" stroke-width="2.9" stroke-linecap="round"/>
</g>
</g>
<g opacity="0.3">
<mask id="mask3_1930_689" style="mask-type:alpha" maskUnits="userSpaceOnUse" x="11" y="8" width="257" height="256">
<circle cx="139.288" cy="136.04" r="121.987" transform="rotate(71.4549 139.288 136.04)" stroke="url(#paint3_linear_1930_689)" stroke-width="11.6" stroke-linecap="round"/>
</mask>
<g mask="url(#mask3_1930_689)">
<rect x="337.819" y="76.4373" width="143.749" height="202.213" transform="rotate(71.4549 337.819 76.4373)" fill="#F91B43" stroke="#F91B43" stroke-width="11.6" stroke-linecap="round"/>
</g>
</g>
<path d="M73.704 125.496H69.816V122.184H73.704V120.024C73.704 118.68 73.896 117.528 74.28 116.568C74.696 115.608 75.24 114.824 75.912 114.216C76.616 113.576 77.416 113.112 78.312 112.824C79.24 112.504 80.216 112.344 81.24 112.344C81.976 112.344 82.68 112.392 83.352 112.488C84.024 112.552 84.728 112.696 85.464 112.92L84.792 116.184C84.28 116.024 83.784 115.928 83.304 115.896C82.856 115.832 82.408 115.8 81.96 115.8C80.84 115.8 79.88 116.104 79.08 116.712C78.28 117.288 77.88 118.36 77.88 119.928V122.184H84.168V125.496H77.88V147H73.704V125.496ZM88.344 122.184H92.52V147H88.344V122.184ZM88.2 112.728H92.664V117.576H88.2V112.728ZM117.077 143.448C116.053 144.824 114.869 145.896 113.525 146.664C112.181 147.4 110.597 147.768 108.773 147.768C106.949 147.768 105.365 147.432 104.021 146.76C102.709 146.088 101.621 145.176 100.757 144.024C99.8925 142.84 99.2525 141.448 98.8365 139.848C98.4205 138.248 98.2125 136.536 98.2125 134.712C98.2125 132.664 98.4685 130.824 98.9805 129.192C99.4925 127.528 100.213 126.12 101.141 124.968C102.101 123.816 103.253 122.936 104.597 122.328C105.973 121.72 107.525 121.416 109.253 121.416C110.565 121.416 111.893 121.688 113.237 122.232C114.581 122.744 115.829 123.736 116.981 125.208V112.728H121.156V147H117.077V143.448ZM117.125 133.848C117.125 131.864 116.901 130.328 116.453 129.24C116.037 128.12 115.333 127.176 114.341 126.408C113.637 125.832 112.917 125.432 112.181 125.208C111.477 124.984 110.693 124.872 109.829 124.872C108.805 124.872 107.845 125.048 106.949 125.4C106.085 125.752 105.317 126.328 104.645 127.128C104.005 127.896 103.493 128.904 103.109 130.152C102.757 131.368 102.581 132.856 102.581 134.616C102.581 136.44 102.773 137.976 103.157 139.224C103.573 140.472 104.101 141.464 104.741 142.2C105.413 142.936 106.149 143.464 106.949 143.784C107.781 144.104 108.629 144.264 109.493 144.264C110.421 144.264 111.253 144.152 111.989 143.928C112.725 143.704 113.461 143.32 114.197 142.776C115.157 142.008 115.877 141.048 116.357 139.896C116.869 138.744 117.125 137.288 117.125 135.528V133.848ZM149.078 140.04C148.662 142.44 147.59 144.328 145.862 145.704C144.166 147.08 141.718 147.768 138.518 147.768C134.742 147.768 131.846 146.632 129.83 144.36C127.814 142.056 126.806 138.856 126.806 134.76C126.806 132.616 127.094 130.712 127.67 129.048C128.246 127.384 129.046 125.992 130.07 124.872C131.126 123.752 132.374 122.904 133.814 122.328C135.254 121.72 136.822 121.416 138.518 121.416C140.438 121.416 142.086 121.72 143.462 122.328C144.838 122.936 145.958 123.784 146.822 124.872C147.718 125.928 148.374 127.192 148.79 128.664C149.238 130.136 149.462 131.752 149.462 133.512V135.624H131.03C131.03 136.872 131.19 138.04 131.51 139.128C131.862 140.184 132.342 141.112 132.95 141.912C133.59 142.68 134.374 143.288 135.302 143.736C136.23 144.184 137.302 144.408 138.518 144.408C140.598 144.408 142.118 144.024 143.078 143.256C144.038 142.456 144.694 141.384 145.046 140.04H149.078ZM145.286 132.504C145.286 131.32 145.158 130.248 144.902 129.288C144.646 128.328 144.246 127.512 143.702 126.84C143.158 126.136 142.454 125.592 141.59 125.208C140.726 124.824 139.686 124.632 138.47 124.632C136.262 124.632 134.534 125.304 133.286 126.648C132.07 127.992 131.35 129.944 131.126 132.504H145.286ZM155.093 112.728H159.269V147H155.093V112.728ZM165.875 122.184H170.051V147H165.875V122.184ZM165.73 112.728H170.195V117.576H165.73V112.728ZM179.248 139.752C179.536 141.48 180.256 142.696 181.408 143.4C182.592 144.072 184.192 144.408 186.208 144.408C188.32 144.408 189.808 144.056 190.672 143.352C191.568 142.616 192.016 141.656 192.016 140.472C192.016 139.992 191.952 139.544 191.824 139.128C191.728 138.68 191.52 138.296 191.2 137.976C190.88 137.624 190.432 137.32 189.856 137.064C189.28 136.808 188.528 136.6 187.6 136.44L184.432 135.96C183.024 135.736 181.792 135.448 180.736 135.096C179.68 134.744 178.784 134.296 178.048 133.752C177.312 133.176 176.752 132.488 176.368 131.688C176.016 130.856 175.84 129.864 175.84 128.712C175.84 127.56 176.08 126.536 176.56 125.64C177.072 124.744 177.76 123.992 178.624 123.384C179.52 122.744 180.56 122.264 181.744 121.944C182.96 121.592 184.272 121.416 185.68 121.416C187.472 121.416 188.96 121.592 190.144 121.944C191.36 122.296 192.352 122.776 193.12 123.384C193.888 123.992 194.48 124.712 194.896 125.544C195.312 126.376 195.632 127.256 195.856 128.184L192.064 128.808C191.84 128.136 191.584 127.544 191.296 127.032C191.008 126.52 190.624 126.104 190.144 125.784C189.664 125.432 189.072 125.176 188.368 125.016C187.696 124.824 186.848 124.728 185.824 124.728C184.672 124.728 183.712 124.84 182.944 125.064C182.176 125.256 181.552 125.528 181.072 125.88C180.624 126.232 180.304 126.632 180.112 127.08C179.92 127.496 179.824 127.944 179.824 128.424C179.824 128.936 179.888 129.4 180.016 129.816C180.144 130.2 180.384 130.552 180.736 130.872C181.088 131.16 181.568 131.416 182.176 131.64C182.784 131.864 183.568 132.056 184.528 132.216L188.128 132.792C191.04 133.272 193.12 134.104 194.368 135.288C195.648 136.472 196.288 138.2 196.288 140.472C196.288 141.528 196.08 142.504 195.664 143.4C195.248 144.264 194.624 145.032 193.792 145.704C192.96 146.344 191.92 146.84 190.672 147.192C189.424 147.576 187.968 147.768 186.304 147.768C184.8 147.768 183.392 147.624 182.08 147.336C180.8 147.048 179.664 146.6 178.672 145.992C177.68 145.352 176.88 144.52 176.272 143.496C175.664 142.472 175.312 141.224 175.216 139.752H179.248Z" fill="#1B4CF9"/>
<g opacity="0.85">
<path d="M88.392 173H91.032C93.864 173 95.608 171.32 95.608 167.32C95.608 163.56 93.976 161.8 91.24 161.8H88.392V173ZM90.12 171.528V163.288H91.16C93.016 163.288 93.88 164.504 93.88 167.368C93.88 170.488 92.904 171.528 91.16 171.528H90.12ZM100.754 173H105.858V171.64H104.162V163.16H105.858V161.8H100.754V163.16H102.45V171.64H100.754V173ZM114.764 173.176C117.004 173.176 118.428 171.912 118.428 170.024C118.428 168.28 117.548 167.4 115.228 166.472C113.404 165.752 113.036 165.32 113.036 164.472C113.036 163.736 113.532 163.128 114.716 163.128C115.724 163.128 116.348 163.512 117.132 164.264L118.236 163.032C117.34 162.152 116.396 161.624 114.796 161.624C112.716 161.624 111.34 162.808 111.34 164.584C111.34 166.28 112.236 167.096 114.476 167.976C116.3 168.696 116.716 169.224 116.716 170.136C116.716 171.096 116.012 171.672 114.812 171.672C113.804 171.672 112.924 171.16 112.156 170.312L111.052 171.48C111.916 172.488 113.18 173.176 114.764 173.176ZM125.493 173H127.205V163.32H130.197V161.8H122.485V163.32H125.493V173ZM134.447 173H136.175V168.312H137.871L139.727 173H141.567L139.551 168.008C140.767 167.576 141.551 166.568 141.551 165C141.551 162.776 140.143 161.8 138.239 161.8H134.447V173ZM136.175 166.888V163.256H138.143C139.311 163.256 139.871 163.848 139.871 165.048C139.871 166.296 139.295 166.888 138.063 166.888H136.175ZM146.809 173H151.913V171.64H150.217V163.16H151.913V161.8H146.809V163.16H148.505V171.64H146.809V173ZM157.522 173H161.218C163.442 173 164.674 171.896 164.674 169.672C164.674 168.056 163.794 167.304 162.85 166.968C163.682 166.6 164.322 165.928 164.322 164.664C164.322 162.776 163.186 161.8 161.266 161.8H157.522V173ZM159.202 166.36V163.24H161.154C162.162 163.24 162.642 163.784 162.642 164.76C162.642 165.688 162.194 166.36 161.106 166.36H159.202ZM159.202 171.56V167.768H161.154C162.322 167.768 162.994 168.44 162.994 169.704C162.994 170.92 162.482 171.56 161.234 171.56H159.202ZM172.38 173.176C174.604 173.176 175.9 171.784 175.9 169.16V161.8H174.188V169.192C174.188 170.84 173.676 171.64 172.428 171.64C171.18 171.64 170.604 170.824 170.604 169.176V161.8H168.892V169.176C168.892 171.8 170.204 173.176 172.38 173.176ZM183.062 173H184.774V163.32H187.766V161.8H180.054V163.32H183.062V173ZM192.864 173H197.968V171.64H196.272V163.16H197.968V161.8H192.864V163.16H194.56V171.64H192.864V173ZM206.921 173.176C209.305 173.176 210.761 171.048 210.761 167.4C210.761 163.72 209.321 161.624 206.937 161.624C204.569 161.624 203.113 163.752 203.113 167.4C203.113 171.08 204.537 173.176 206.921 173.176ZM206.953 171.656C205.625 171.656 204.857 170.392 204.857 167.4C204.857 164.392 205.577 163.144 206.905 163.144C208.249 163.144 209.017 164.408 209.017 167.4C209.017 170.408 208.281 171.656 206.953 171.656ZM215.011 173H216.531V166.904C216.531 166.2 216.515 165.08 216.483 164.696C216.723 165.288 217.187 166.36 217.667 167.288L220.515 173H221.891V161.8H220.371V167.592C220.371 168.312 220.387 169.432 220.419 169.832C220.195 169.272 219.715 168.168 219.219 167.192L216.531 161.8H215.011V173ZM183.11 191H189.99V189.48H184.822V179.8H183.11V191ZM194.624 191H201.504V189.48H196.336V179.8H194.624V191ZM209.609 191.176C211.401 191.176 212.425 190.184 213.097 188.776L211.705 188.024C211.145 189.128 210.633 189.672 209.657 189.672C208.185 189.672 207.289 188.296 207.289 185.4C207.289 182.488 208.169 181.128 209.625 181.128C210.569 181.128 211.049 181.608 211.577 182.76L213.049 182.072C212.377 180.488 211.417 179.624 209.641 179.624C207.129 179.624 205.561 181.784 205.561 185.4C205.561 188.984 207.017 191.176 209.609 191.176Z" fill="#1B4CF9"/>
</g>
</g>
<defs>
<linearGradient id="paint0_linear_1930_689" x1="46.9562" y1="43.0098" x2="46.9562" y2="228.61" gradientUnits="userSpaceOnUse">
<stop offset="0.556318" stop-color="#F91B43" stop-opacity="0"/>
<stop offset="1" stop-color="#F91B43" stop-opacity="0.6"/>
</linearGradient>
<linearGradient id="paint1_linear_1930_689" x1="139.289" y1="25.1143" x2="139.289" y2="246.964" gradientUnits="userSpaceOnUse">
<stop stop-color="#F8F8EC" stop-opacity="0"/>
<stop offset="0.505208" stop-color="#F8F8EC"/>
</linearGradient>
<linearGradient id="paint2_linear_1930_689" x1="139.287" y1="2.00804" x2="139.287" y2="270.072" gradientUnits="userSpaceOnUse">
<stop stop-color="#F8F8EC" stop-opacity="0"/>
<stop offset="1" stop-color="#F8F8EC"/>
</linearGradient>
<linearGradient id="paint3_linear_1930_689" x1="139.288" y1="8.25336" x2="139.288" y2="263.827" gradientUnits="userSpaceOnUse">
<stop stop-color="#F8F8EC" stop-opacity="0"/>
<stop offset="0.46875" stop-color="#F8F8EC"/>
</linearGradient>
<clipPath id="clip0_1930_689">
<rect width="275" height="258" fill="white"/>
</clipPath>
</defs>
</svg>
